Linefont[max,min].ufo
<glyph name="neg.0" format="2">
	<advance width="25"/>
	<outline>
		<contour>
			<point x="-12.5" y="128" type="line"/>
			<point x="12.5" y="128" type="line"/>
			<point x="12.5" y="-128" type="line"/>
			<point x="-12.5" y="-128" type="line"/>
		</contour>
	</outline>
</glyph>
<glyph name="neg.-1" format="2">
	<advance width="25"/>
	<outline>
		<contour>
			<point x="35.038" y="118.845" type="line"/>
			<point x="60.038" y="108.845" type="line"/>
			<point x="-35.038" y="-128.845" type="line"/>
			<point x="-60.038" y="-118.845" type="line"/>
		</contour>
	</outline>
</glyph>
<glyph name="neg.-100" format="2">
	<advance width="25"/>
	<outline>
		<contour>
			<point x="115.46" y="3.199" type="line"/>
			<point x="140.46" y="-996.801" type="line"/>
			<point x="-115.46" y="-1003.199" type="line"/>
			<point x="-140.46" y="-3.199" type="line"/>
		</contour>
	</outline>
</glyph>
<glyph name="neg.-101" format="2">
	<advance width="25"/>
	<outline>
		<contour>
			<point x="115.461" y="3.167" type="line"/>
			<point x="140.461" y="-1006.833" type="line"/>
			<point x="-115.461" y="-1013.167" type="line"/>
			<point x="-140.461" y="-3.167" type="line"/>
		</contour>
	</outline>
</glyph>
<glyph name="neg.-102" format="2">
	<advance width="25"/>
	<outline>
		<contour>
			<point x="115.462" y="3.136" type="line"/>
			<point x="140.462" y="-1016.864" type="line"/>
			<point x="-115.462" y="-1023.136" type="line"/>
			<point x="-140.462" y="-3.136" type="line"/>
		</contour>
	</outline>
</glyph>
<glyph name="neg.-103" format="2">
	<advance width="25"/>
	<outline>
		<contour>
			<point x="112.463" y="3.033" type="line"/>
			<point x="137.463" y="-1026.967" type="line"/>
			<point x="-112.463" y="-1033.033" type="line"/>
			<point x="-137.463" y="-3.033" type="line"/>
		</contour>
	</outline>
</glyph>
<glyph name="neg.-104" format="2">
	<advance width="25"/>
	<outline>
		<contour>
			<point x="115.463" y="3.076" type="line"/>
			<point x="140.463" y="-1036.924" type="line"/>
			<point x="-115.463" y="-1043.076" type="line"/>
			<point x="-140.463" y="-3.076" type="line"/>
		</contour>
	</outline>
</glyph>
<glyph name="neg.-105" format="2">
	<advance width="25"/>
	<outline>
		<contour>
			<point x="115.464" y="3.047" type="line"/>
			<point x="140.464" y="-1046.953" type="line"/>
			<point x="-115.464" y="-1053.047" type="line"/>
			<point x="-140.464" y="-3.047" type="line"/>
		</contour>
	</outline>
</glyph>
<glyph name="neg.-106" format="2">
	<advance width="25"/>
	<outline>
		<contour>
			<point x="115.464" y="3.018" type="line"/>
			<point x="140.464" y="-1056.982" type="line"/>
			<point x="-115.464" y="-1063.018" type="line"/>
			<point x="-140.464" y="-3.018" type="line"/>
		</contour>
	</outline>
</glyph>
<glyph name="neg.-107" format="2">
	<advance width="25"/>
	<outline>
		<contour>
			<point x="112.466" y="2.92" type="line"/>
			<point x="137.466" y="-1067.08" type="line"/>
			<point x="-112.466" y="-1072.92" type="line"/>
			<point x="-137.466" y="-2.92" type="line"/>
		</contour>
	</outline>
</glyph>
<glyph name="neg.-108" format="2">
	<advance width="25"/>
	<outline>
		<contour>
			<point x="115.466" y="2.962" type="line"/>
			<point x="140.466" y="-1077.038" type="line"/>
			<point x="-115.466" y="-1082.962" type="line"/>
			<point x="-140.466" y="-2.962" type="line"/>
		</contour>
	</outline>
</glyph>
<glyph name="neg.-109" format="2">
	<advance width="25"/>
	<outline>
		<contour>
			<point x="112.467" y="2.866" type="line"/>
			<point x="137.467" y="-1087.134" type="line"/>
			<point x="-112.467" y="-1092.866" type="line"/>
			<point x="-137.467" y="-2.866" type="line"/>
		</contour>
	</outline>
</glyph>
<glyph name="neg.-11" format="2">
	<advance width="25"/>
	<outline>
		<contour>
			<point x="109.392" y="27.703" type="line"/>
			<point x="134.392" y="-82.297" type="line"/>
			<point x="-109.392" y="-137.703" type="line"/>
			<point x="-134.392" y="-27.703" type="line"/>
		</contour>
	</outline>
</glyph>
<glyph name="neg.-110" format="2">
	<advance width="25"/>
	<outline>
		<contour>
			<point x="112.468" y="2.84" type="line"/>
			<point x="137.468" y="-1097.16" type="line"/>
			<point x="-112.468" y="-1102.84" type="line"/>
			<point x="-137.468" y="-2.84" type="line"/>
		</contour>
	</outline>
</glyph>
<glyph name="neg.-112" format="2">
	<advance width="25"/>
	<outline>
		<contour>
			<point x="115.468" y="2.856" type="line"/>
			<point x="140.468" y="-1117.144" type="line"/>
			<point x="-115.468" y="-1122.856" type="line"/>
			<point x="-140.468" y="-2.856" type="line"/>
		</contour>
	</outline>
</glyph>
<glyph name="neg.-113" format="2">
	<advance width="25"/>
	<outline>
		<contour>
			<point x="87.476" y="2.212" type="line"/>
			<point x="112.476" y="-1127.788" type="line"/>
			<point x="-87.476" y="-1132.212" type="line"/>
			<point x="-112.476" y="-2.212" type="line"/>
		</contour>
	</outline>
</glyph>
<glyph name="neg.-114" format="2">
	<advance width="25"/>
	<outline>
		<contour>
			<point x="112.47" y="2.741" type="line"/>
			<point x="137.47" y="-1137.259" type="line"/>
			<point x="-112.47" y="-1142.741" type="line"/>
			<point x="-137.47" y="-2.741" type="line"/>
		</contour>
	</outline>
</glyph>
<glyph name="neg.-115" format="2">
	<advance width="25"/>
	<outline>
		<contour>
			<point x="115.47" y="2.782" type="line"/>
			<point x="140.47" y="-1147.218" type="line"/>
			<point x="-115.47" y="-1152.782" type="line"/>
			<point x="-140.47" y="-2.782" type="line"/>
		</contour>
	</outline>
</glyph>
<glyph name="neg.-116" format="2">
	<advance width="25"/>
	<outline>
		<contour>
			<point x="112.471" y="2.693" type="line"/>
			<point x="137.471" y="-1157.307" type="line"/>
			<point x="-112.471" y="-1162.693" type="line"/>
			<point x="-137.471" y="-2.693" type="line"/>
		</contour>
	</outline>
</glyph>
<glyph name="neg.-117" format="2">
	<advance width="25"/>
	<outline>
		<contour>
			<point x="87.477" y="2.136" type="line"/>
			<point x="112.477" y="-1167.864" type="line"/>
			<point x="-87.477" y="-1172.136" type="line"/>
			<point x="-112.477" y="-2.136" type="line"/>
		</contour>
	</outline>
</glyph>
<glyph name="neg.-118" format="2">
	<advance width="25"/>
	<outline>
		<contour>
			<point x="115.471" y="2.711" type="line"/>
			<point x="140.471" y="-1177.289" type="line"/>
			<point x="-115.471" y="-1182.711" type="line"/>
			<point x="-140.471" y="-2.711" type="line"/>
		</contour>
	</outline>
</glyph>
<glyph name="neg.-119" format="2">
	<advance width="25"/>
	<outline>
		<contour>
			<point x="115.472" y="2.688" type="line"/>
			<point x="140.472" y="-1187.312" type="line"/>
			<point x="-115.472" y="-1192.688" type="line"/>
			<point x="-140.472" y="-2.688" type="line"/>
		</contour>
	</outline>
</glyph>
<glyph name="neg.-12" format="2">
	<advance width="25"/>
	<outline>
		<contour>
			<point x="112.809" y="26.106" type="line"/>
			<point x="137.809" y="-93.894" type="line"/>
			<point x="-112.809" y="-146.106" type="line"/>
			<point x="-137.809" y="-26.106" type="line"/>
		</contour>
	</outline>
</glyph>
<glyph name="neg.-120" format="2">
	<advance width="25"/>
	<outline>
		<contour>
			<point x="112.473" y="2.604" type="line"/>
			<point x="137.473" y="-1197.396" type="line"/>
			<point x="-112.473" y="-1202.604" type="line"/>
			<point x="-137.473" y="-2.604" type="line"/>
		</contour>
	</outline>
</glyph>
<glyph name="neg.-121" format="2">
	<advance width="25"/>
	<outline>
		<contour>
			<point x="87.479" y="2.066" type="line"/>
			<point x="112.479" y="-1207.934" type="line"/>
			<point x="-87.479" y="-1212.066" type="line"/>
			<point x="-112.479" y="-2.066" type="line"/>
		</contour>
	</outline>
</glyph>
<glyph name="neg.-122" format="2">
	<advance width="25"/>
	<outline>
		<contour>
			<point x="112.474" y="2.561" type="line"/>
			<point x="137.474" y="-1217.439" type="line"/>
			<point x="-112.474" y="-1222.561" type="line"/>
			<point x="-137.474" y="-2.561" type="line"/>
		</contour>
	</outline>
</glyph>
<glyph name="neg.-123" format="2">
	<advance width="25"/>
	<outline>
		<contour>
			<point x="112.474" y="2.54" type="line"/>
			<point x="137.474" y="-1227.46" type="line"/>
			<point x="-112.474" y="-1232.54" type="line"/>
			<point x="-137.474" y="-2.54" type="line"/>
		</contour>
	</outline>
</glyph>
<glyph name="neg.-124" format="2">
	<advance width="25"/>
	<outline>
		<contour>
			<point x="115.474" y="2.58" type="line"/>
			<point x="140.474" y="-1237.42" type="line"/>
			<point x="-115.474" y="-1242.58" type="line"/>
			<point x="-140.474" y="-2.58" type="line"/>
		</contour>
	</outline>
</glyph>
<glyph name="neg.-125" format="2">
	<advance width="25"/>
	<outline>
		<contour>
			<point x="112.475" y="2.5" type="line"/>
			<point x="137.475" y="-1247.5" type="line"/>
			<point x="-112.475" y="-1252.5" type="line"/>
			<point x="-137.475" y="-2.5" type="line"/>
		</contour>
	</outline>
</glyph>
<glyph name="neg.-127" format="2">
	<advance width="25"/>
	<outline>
		<contour>
			<point x="112.476" y="2.46" type="line"/>
			<point x="137.476" y="-1267.54" type="line"/>
			<point x="-112.476" y="-1272.46" type="line"/>
			<point x="-137.476" y="-2.46" type="line"/>
		</contour>
	</outline>
</glyph>
<glyph name="neg.-13" format="2">
	<advance width="25"/>
	<outline>
		<contour>
			<point x="110.251" y="23.606" type="line"/>
			<point x="135.251" y="-106.394" type="line"/>
			<point x="-110.251" y="-153.606" type="line"/>
			<point x="-135.251" y="-23.606" type="line"/>
		</contour>
	</outline>
</glyph>
<glyph name="neg.-14" format="2">
	<advance width="25"/>
	<outline>
		<contour>
			<point x="110.553" y="21.974" type="line"/>
			<point x="135.553" y="-118.026" type="line"/>
			<point x="-110.553" y="-161.974" type="line"/>
			<point x="-135.553" y="-21.974" type="line"/>
		</contour>
	</outline>
</glyph>
<glyph name="neg.-15" format="2">
	<advance width="25"/>
	<outline>
		<contour>
			<point x="110.799" y="20.55" type="line"/>
			<point x="135.799" y="-129.45" type="line"/>
			<point x="-110.799" y="-170.55" type="line"/>
			<point x="-135.799" y="-20.55" type="line"/>
		</contour>
	</outline>
</glyph>
<glyph name="neg.-16" format="2">
	<advance width="25"/>
	<outline>
		<contour>
			<point x="113.966" y="19.76" type="line"/>
			<point x="138.966" y="-140.24" type="line"/>
			<point x="-113.966" y="-179.76" type="line"/>
			<point x="-138.966" y="-19.76" type="line"/>
		</contour>
	</outline>
</glyph>
<glyph name="neg.-2" format="2">
	<advance width="25"/>
	<outline>
		<contour>
			<point x="67.461" y="99.951" type="line"/>
			<point x="92.461" y="79.951" type="line"/>
			<point x="-67.461" y="-119.951" type="line"/>
			<point x="-92.461" y="-99.951" type="line"/>
		</contour>
	</outline>
</glyph>
<glyph name="neg.-21" format="2">
	<advance width="25"/>
	<outline>
		<contour>
			<point x="114.602" y="15.131" type="line"/>
			<point x="139.602" y="-194.869" type="line"/>
			<point x="-114.602" y="-225.131" type="line"/>
			<point x="-139.602" y="-15.131" type="line"/>
		</contour>
	</outline>
</glyph>
<glyph name="neg.-22" format="2">
	<advance width="25"/>
	<outline>
		<contour>
			<point x="114.681" y="14.452" type="line"/>
			<point x="139.681" y="-205.548" type="line"/>
			<point x="-114.681" y="-234.452" type="line"/>
			<point x="-139.681" y="-14.452" type="line"/>
		</contour>
	</outline>
</glyph>
<glyph name="neg.-23" format="2">
	<advance width="25"/>
	<outline>
		<contour>
			<point x="114.75" y="13.832" type="line"/>
			<point x="139.75" y="-216.168" type="line"/>
			<point x="-114.75" y="-243.832" type="line"/>
			<point x="-139.75" y="-13.832" type="line"/>
		</contour>
	</outline>
</glyph>
<glyph name="neg.-24" format="2">
	<advance width="25"/>
	<outline>
		<contour>
			<point x="114.811" y="13.262" type="line"/>
			<point x="139.811" y="-226.738" type="line"/>
			<point x="-114.811" y="-253.262" type="line"/>
			<point x="-139.811" y="-13.262" type="line"/>
		</contour>
	</outline>
</glyph>
<glyph name="neg.-25" format="2">
	<advance width="25"/>
	<outline>
		<contour>
			<point x="114.865" y="12.736" type="line"/>
			<point x="139.865" y="-237.264" type="line"/>
			<point x="-114.865" y="-262.736" type="line"/>
			<point x="-139.865" y="-12.736" type="line"/>
		</contour>
	</outline>
</glyph>
<glyph name="neg.-26" format="2">
	<advance width="25"/>
	<outline>
		<contour>
			<point x="111.926" y="11.964" type="line"/>
			<point x="136.926" y="-248.036" type="line"/>
			<point x="-111.926" y="-271.964" type="line"/>
			<point x="-136.926" y="-11.964" type="line"/>
		</contour>
	</outline>
</glyph>
<glyph name="neg.-28" format="2">
	<advance width="25"/>
	<outline>
		<contour>
			<point x="114.993" y="11.383" type="line"/>
			<point x="139.993" y="-268.617" type="line"/>
			<point x="-114.993" y="-291.383" type="line"/>
			<point x="-139.993" y="-11.383" type="line"/>
		</contour>
	</outline>
</glyph>
<glyph name="neg.-29" format="2">
	<advance width="25"/>
	<outline>
		<contour>
			<point x="112.038" y="10.736" type="line"/>
			<point x="137.038" y="-279.264" type="line"/>
			<point x="-112.038" y="-300.736" type="line"/>
			<point x="-137.038" y="-10.736" type="line"/>
		</contour>
	</outline>
</glyph>
<glyph name="neg.-30" format="2">
	<advance width="25"/>
	<outline>
		<contour>
			<point x="115.058" y="10.63" type="line"/>
			<point x="140.058" y="-289.37" type="line"/>
			<point x="-115.058" y="-310.63" type="line"/>
			<point x="-140.058" y="-10.63" type="line"/>
		</contour>
	</outline>
</glyph>
<glyph name="neg.-31" format="2">
	<advance width="25"/>
	<outline>
		<contour>
			<point x="115.086" y="10.289" type="line"/>
			<point x="140.086" y="-299.711" type="line"/>
			<point x="-115.086" y="-320.289" type="line"/>
			<point x="-140.086" y="-10.289" type="line"/>
		</contour>
	</outline>
</glyph>
<glyph name="neg.-32" format="2">
	<advance width="25"/>
	<outline>
		<contour>
			<point x="112.12" y="9.736" type="line"/>
			<point x="137.12" y="-310.264" type="line"/>
			<point x="-112.12" y="-329.736" type="line"/>
			<point x="-137.12" y="-9.736" type="line"/>
		</contour>
	</outline>
</glyph>
<glyph name="neg.-33" format="2">
	<advance width="25"/>
	<outline>
		<contour>
			<point x="115.134" y="9.669" type="line"/>
			<point x="140.134" y="-320.331" type="line"/>
			<point x="-115.134" y="-339.669" type="line"/>
			<point x="-140.134" y="-9.669" type="line"/>
		</contour>
	</outline>
</glyph>
<glyph name="neg.-34" format="2">
	<advance width="25"/>
	<outline>
		<contour>
			<point x="87.231" y="7.333" type="line"/>
			<point x="112.231" y="-332.667" type="line"/>
			<point x="-87.231" y="-347.333" type="line"/>
			<point x="-112.231" y="-7.333" type="line"/>
		</contour>
	</outline>
</glyph>
<glyph name="neg.-35" format="2">
	<advance width="25"/>
	<outline>
		<contour>
			<point x="115.175" y="9.12" type="line"/>
			<point x="140.175" y="-340.88" type="line"/>
			<point x="-115.175" y="-359.12" type="line"/>
			<point x="-140.175" y="-9.12" type="line"/>
		</contour>
	</outline>
</glyph>
<glyph name="neg.-36" format="2">
	<advance width="25"/>
	<outline>
		<contour>
			<point x="112.2" y="8.66" type="line"/>
			<point x="137.2" y="-351.34" type="line"/>
			<point x="-112.2" y="-368.66" type="line"/>
			<point x="-137.2" y="-8.66" type="line"/>
		</contour>
	</outline>
</glyph>
<glyph name="neg.-39" format="2">
	<advance width="25"/>
	<outline>
		<contour>
			<point x="115.238" y="8.188" type="line"/>
			<point x="140.238" y="-381.812" type="line"/>
			<point x="-115.238" y="-398.188" type="line"/>
			<point x="-140.238" y="-8.188" type="line"/>
		</contour>
	</outline>
</glyph>
<glyph name="neg.-4" format="2">
	<advance width="25"/>
	<outline>
		<contour>
			<point x="93.5" y="66.25" type="line"/>
			<point x="118.5" y="26.25" type="line"/>
			<point x="-93.5" y="-106.25" type="line"/>
			<point x="-118.5" y="-66.25" type="line"/>
		</contour>
	</outline>
</glyph>
<glyph name="neg.-41" format="2">
	<advance width="25"/>
	<outline>
		<contour>
			<point x="87.315" y="6.086" type="line"/>
			<point x="112.315" y="-403.914" type="line"/>
			<point x="-87.315" y="-416.086" type="line"/>
			<point x="-112.315" y="-6.086" type="line"/>
		</contour>
	</outline>
</glyph>
<glyph name="neg.-42" format="2">
	<advance width="25"/>
	<outline>
		<contour>
			<point x="115.274" y="7.606" type="line"/>
			<point x="140.274" y="-412.394" type="line"/>
			<point x="-115.274" y="-427.606" type="line"/>
			<point x="-140.274" y="-7.606" type="line"/>
		</contour>
	</outline>
</glyph>
<glyph name="neg.-43" format="2">
	<advance width="25"/>
	<outline>
		<contour>
			<point x="112.289" y="7.255" type="line"/>
			<point x="137.289" y="-422.745" type="line"/>
			<point x="-112.289" y="-437.255" type="line"/>
			<point x="-137.289" y="-7.255" type="line"/>
		</contour>
	</outline>
</glyph>
<glyph name="neg.-44" format="2">
	<advance width="25"/>
	<outline>
		<contour>
			<point x="115.294" y="7.261" type="line"/>
			<point x="140.294" y="-432.739" type="line"/>
			<point x="-115.294" y="-447.261" type="line"/>
			<point x="-140.294" y="-7.261" type="line"/>
		</contour>
	</outline>
</glyph>
<glyph name="neg.-46" format="2">
	<advance width="25"/>
	<outline>
		<contour>
			<point x="112.316" y="6.783" type="line"/>
			<point x="137.316" y="-453.217" type="line"/>
			<point x="-112.316" y="-466.783" type="line"/>
			<point x="-137.316" y="-6.783" type="line"/>
		</contour>
	</outline>
</glyph>
<glyph name="neg.-47" format="2">
	<advance width="25"/>
	<outline>
		<contour>
			<point x="115.319" y="6.799" type="line"/>
			<point x="140.319" y="-463.201" type="line"/>
			<point x="-115.319" y="-476.799" type="line"/>
			<point x="-140.319" y="-6.799" type="line"/>
		</contour>
	</outline>
</glyph>
<glyph name="neg.-48" format="2">
	<advance width="25"/>
	<outline>
		<contour>
			<point x="115.327" y="6.658" type="line"/>
			<point x="140.327" y="-473.342" type="line"/>
			<point x="-115.327" y="-486.658" type="line"/>
			<point x="-140.327" y="-6.658" type="line"/>
		</contour>
	</outline>
</glyph>
<glyph name="neg.-49" format="2">
	<advance width="25"/>
	<outline>
		<contour>
			<point x="87.37" y="5.095" type="line"/>
			<point x="112.37" y="-484.905" type="line"/>
			<point x="-87.37" y="-495.095" type="line"/>
			<point x="-112.37" y="-5.095" type="line"/>
		</contour>
	</outline>
</glyph>
<glyph name="neg.-5" format="2">
	<advance width="25"/>
	<outline>
		<contour>
			<point x="101.987" y="57.243" type="line"/>
			<point x="126.987" y="7.243" type="line"/>
			<point x="-101.987" y="-107.243" type="line"/>
			<point x="-126.987" y="-57.243" type="line"/>
		</contour>
	</outline>
</glyph>
<glyph name="neg.-50" format="2">
	<advance width="25"/>
	<outline>
		<contour>
			<point x="112.344" y="6.242" type="line"/>
			<point x="137.344" y="-493.758" type="line"/>
			<point x="-112.344" y="-506.242" type="line"/>
			<point x="-137.344" y="-6.242" type="line"/>
		</contour>
	</outline>
</glyph>
<glyph name="neg.-51" format="2">
	<advance width="25"/>
	<outline>
		<contour>
			<point x="112.35" y="6.12" type="line"/>
			<point x="137.35" y="-503.88" type="line"/>
			<point x="-112.35" y="-516.12" type="line"/>
			<point x="-137.35" y="-6.12" type="line"/>
		</contour>
	</outline>
</glyph>
<glyph name="neg.-52" format="2">
	<advance width="25"/>
	<outline>
		<contour>
			<point x="112.356" y="6.003" type="line"/>
			<point x="137.356" y="-513.997" type="line"/>
			<point x="-112.356" y="-526.003" type="line"/>
			<point x="-137.356" y="-6.003" type="line"/>
		</contour>
	</outline>
</glyph>
<glyph name="neg.-53" format="2">
	<advance width="25"/>
	<outline>
		<contour>
			<point x="87.389" y="4.712" type="line"/>
			<point x="112.389" y="-525.288" type="line"/>
			<point x="-87.389" y="-534.712" type="line"/>
			<point x="-112.389" y="-4.712" type="line"/>
		</contour>
	</outline>
</glyph>
<glyph name="neg.-54" format="2">
	<advance width="25"/>
	<outline>
		<contour>
			<point x="115.363" y="5.92" type="line"/>
			<point x="140.363" y="-534.08" type="line"/>
			<point x="-115.363" y="-545.92" type="line"/>
			<point x="-140.363" y="-5.92" type="line"/>
		</contour>
	</outline>
</glyph>
<glyph name="neg.-55" format="2">
	<advance width="25"/>
	<outline>
		<contour>
			<point x="115.368" y="5.812" type="line"/>
			<point x="140.368" y="-544.188" type="line"/>
			<point x="-115.368" y="-555.812" type="line"/>
			<point x="-140.368" y="-5.812" type="line"/>
		</contour>
	</outline>
</glyph>
<glyph name="neg.-56" format="2">
	<advance width="25"/>
	<outline>
		<contour>
			<point x="112.376" y="5.575" type="line"/>
			<point x="137.376" y="-554.425" type="line"/>
			<point x="-112.376" y="-565.575" type="line"/>
			<point x="-137.376" y="-5.575" type="line"/>
		</contour>
	</outline>
</glyph>
<glyph name="neg.-57" format="2">
	<advance width="25"/>
	<outline>
		<contour>
			<point x="115.377" y="5.609" type="line"/>
			<point x="140.377" y="-564.391" type="line"/>
			<point x="-115.377" y="-575.609" type="line"/>
			<point x="-140.377" y="-5.609" type="line"/>
		</contour>
	</outline>
</glyph>
<glyph name="neg.-59" format="2">
	<advance width="25"/>
	<outline>
		<contour>
			<point x="112.388" y="5.292" type="line"/>
			<point x="137.388" y="-584.708" type="line"/>
			<point x="-112.388" y="-595.292" type="line"/>
			<point x="-137.388" y="-5.292" type="line"/>
		</contour>
	</outline>
</glyph>
<glyph name="neg.-6" format="2">
	<advance width="25"/>
	<outline>
		<contour>
			<point x="105.654" y="49.231" type="line"/>
			<point x="130.654" y="-10.769" type="line"/>
			<point x="-105.654" y="-109.231" type="line"/>
			<point x="-130.654" y="-49.231" type="line"/>
		</contour>
	</outline>
</glyph>
<glyph name="neg.-60" format="2">
	<advance width="25"/>
	<outline>
		<contour>
			<point x="115.389" y="5.329" type="line"/>
			<point x="140.389" y="-594.671" type="line"/>
			<point x="-115.389" y="-605.329" type="line"/>
			<point x="-140.389" y="-5.329" type="line"/>
		</contour>
	</outline>
</glyph>
<glyph name="neg.-61" format="2">
	<advance width="25"/>
	<outline>
		<contour>
			<point x="87.416" y="4.095" type="line"/>
			<point x="112.416" y="-605.905" type="line"/>
			<point x="-87.416" y="-614.095" type="line"/>
			<point x="-112.416" y="-4.095" type="line"/>
		</contour>
	</outline>
</glyph>
<glyph name="neg.-62" format="2">
	<advance width="25"/>
	<outline>
		<contour>
			<point x="115.396" y="5.157" type="line"/>
			<point x="140.396" y="-614.843" type="line"/>
			<point x="-115.396" y="-625.157" type="line"/>
			<point x="-140.396" y="-5.157" type="line"/>
		</contour>
	</outline>
</glyph>
<glyph name="neg.-63" format="2">
	<advance width="25"/>
	<outline>
		<contour>
			<point x="112.402" y="4.956" type="line"/>
			<point x="137.402" y="-625.044" type="line"/>
			<point x="-112.402" y="-634.956" type="line"/>
			<point x="-137.402" y="-4.956" type="line"/>
		</contour>
	</outline>
</glyph>
<glyph name="neg.-64" format="2">
	<advance width="25"/>
	<outline>
		<contour>
			<point x="112.405" y="4.879" type="line"/>
			<point x="137.405" y="-635.121" type="line"/>
			<point x="-112.405" y="-644.879" type="line"/>
			<point x="-137.405" y="-4.879" type="line"/>
		</contour>
	</outline>
</glyph>
<glyph name="neg.-67" format="2">
	<advance width="25"/>
	<outline>
		<contour>
			<point x="87.43" y="3.729" type="line"/>
			<point x="112.43" y="-666.271" type="line"/>
			<point x="-87.43" y="-673.729" type="line"/>
			<point x="-112.43" y="-3.729" type="line"/>
		</contour>
	</outline>
</glyph>
<glyph name="neg.-69" format="2">
	<advance width="25"/>
	<outline>
		<contour>
			<point x="87.434" y="3.621" type="line"/>
			<point x="112.434" y="-686.379" type="line"/>
			<point x="-87.434" y="-693.621" type="line"/>
			<point x="-112.434" y="-3.621" type="line"/>
		</contour>
	</outline>
</glyph>
<glyph name="neg.-7" format="2">
	<advance width="25"/>
	<outline>
		<contour>
			<point x="105.218" y="42.042" type="line"/>
			<point x="130.218" y="-27.958" type="line"/>
			<point x="-105.218" y="-112.042" type="line"/>
			<point x="-130.218" y="-42.042" type="line"/>
		</contour>
	</outline>
</glyph>
<glyph name="neg.-71" format="2">
	<advance width="25"/>
	<outline>
		<contour>
			<point x="87.438" y="3.519" type="line"/>
			<point x="112.438" y="-706.481" type="line"/>
			<point x="-87.438" y="-713.519" type="line"/>
			<point x="-112.438" y="-3.519" type="line"/>
		</contour>
	</outline>
</glyph>
<glyph name="neg.-72" format="2">
	<advance width="25"/>
	<outline>
		<contour>
			<point x="112.425" y="4.338" type="line"/>
			<point x="137.425" y="-715.662" type="line"/>
			<point x="-112.425" y="-724.338" type="line"/>
			<point x="-137.425" y="-4.338" type="line"/>
		</contour>
	</outline>
</glyph>
<glyph name="neg.-73" format="2">
	<advance width="25"/>
	<outline>
		<contour>
			<point x="112.427" y="4.278" type="line"/>
			<point x="137.427" y="-725.722" type="line"/>
			<point x="-112.427" y="-734.278" type="line"/>
			<point x="-137.427" y="-4.278" type="line"/>
		</contour>
	</outline>
</glyph>
<glyph name="neg.-74" format="2">
	<advance width="25"/>
	<outline>
		<contour>
			<point x="115.427" y="4.322" type="line"/>
			<point x="140.427" y="-735.678" type="line"/>
			<point x="-115.427" y="-744.322" type="line"/>
			<point x="-140.427" y="-4.322" type="line"/>
		</contour>
	</outline>
</glyph>
<glyph name="neg.-75" format="2">
	<advance width="25"/>
	<outline>
		<contour>
			<point x="115.429" y="4.264" type="line"/>
			<point x="140.429" y="-745.736" type="line"/>
			<point x="-115.429" y="-754.264" type="line"/>
			<point x="-140.429" y="-4.264" type="line"/>
		</contour>
	</outline>
</glyph>
<glyph name="neg.-76" format="2">
	<advance width="25"/>
	<outline>
		<contour>
			<point x="115.431" y="4.208" type="line"/>
			<point x="140.431" y="-755.792" type="line"/>
			<point x="-115.431" y="-764.208" type="line"/>
			<point x="-140.431" y="-4.208" type="line"/>
		</contour>
	</outline>
</glyph>
<glyph name="neg.-77" format="2">
	<advance width="25"/>
	<outline>
		<contour>
			<point x="112.434" y="4.056" type="line"/>
			<point x="137.434" y="-765.944" type="line"/>
			<point x="-112.434" y="-774.056" type="line"/>
			<point x="-137.434" y="-4.056" type="line"/>
		</contour>
	</outline>
</glyph>
<glyph name="neg.-79" format="2">
	<advance width="25"/>
	<outline>
		<contour>
			<point x="112.437" y="3.954" type="line"/>
			<point x="137.437" y="-786.046" type="line"/>
			<point x="-112.437" y="-793.954" type="line"/>
			<point x="-137.437" y="-3.954" type="line"/>
		</contour>
	</outline>
</glyph>
<glyph name="neg.-8" format="2">
	<advance width="25"/>
	<outline>
		<contour>
			<point x="109.673" y="38.179" type="line"/>
			<point x="134.673" y="-41.821" type="line"/>
			<point x="-109.673" y="-118.179" type="line"/>
			<point x="-134.673" y="-38.179" type="line"/>
		</contour>
	</outline>
</glyph>
<glyph name="neg.-81" format="2">
	<advance width="25"/>
	<outline>
		<contour>
			<point x="115.439" y="3.949" type="line"/>
			<point x="140.439" y="-806.051" type="line"/>
			<point x="-115.439" y="-813.949" type="line"/>
			<point x="-140.439" y="-3.949" type="line"/>
		</contour>
	</outline>
</glyph>
<glyph name="neg.-82" format="2">
	<advance width="25"/>
	<outline>
		<contour>
			<point x="115.441" y="3.901" type="line"/>
			<point x="140.441" y="-816.099" type="line"/>
			<point x="-115.441" y="-823.901" type="line"/>
			<point x="-140.441" y="-3.901" type="line"/>
		</contour>
	</outline>
</glyph>
<glyph name="neg.-83" format="2">
	<advance width="25"/>
	<outline>
		<contour>
			<point x="115.442" y="3.854" type="line"/>
			<point x="140.442" y="-826.146" type="line"/>
			<point x="-115.442" y="-833.854" type="line"/>
			<point x="-140.442" y="-3.854" type="line"/>
		</contour>
	</outline>
</glyph>
<glyph name="neg.-84" format="2">
	<advance width="25"/>
	<outline>
		<contour>
			<point x="112.445" y="3.719" type="line"/>
			<point x="137.445" y="-836.281" type="line"/>
			<point x="-112.445" y="-843.719" type="line"/>
			<point x="-137.445" y="-3.719" type="line"/>
		</contour>
	</outline>
</glyph>
<glyph name="neg.-85" format="2">
	<advance width="25"/>
	<outline>
		<contour>
			<point x="115.445" y="3.763" type="line"/>
			<point x="140.445" y="-846.237" type="line"/>
			<point x="-115.445" y="-853.763" type="line"/>
			<point x="-140.445" y="-3.763" type="line"/>
		</contour>
	</outline>
</glyph>
<glyph name="neg.-86" format="2">
	<advance width="25"/>
	<outline>
		<contour>
			<point x="115.446" y="3.719" type="line"/>
			<point x="140.446" y="-856.281" type="line"/>
			<point x="-115.446" y="-863.719" type="line"/>
			<point x="-140.446" y="-3.719" type="line"/>
		</contour>
	</outline>
</glyph>
<glyph name="neg.-87" format="2">
	<advance width="25"/>
	<outline>
		<contour>
			<point x="115.447" y="3.677" type="line"/>
			<point x="140.447" y="-866.323" type="line"/>
			<point x="-115.447" y="-873.677" type="line"/>
			<point x="-140.447" y="-3.677" type="line"/>
		</contour>
	</outline>
</glyph>
<glyph name="neg.-88" format="2">
	<advance width="25"/>
	<outline>
		<contour>
			<point x="112.45" y="3.55" type="line"/>
			<point x="137.45" y="-876.45" type="line"/>
			<point x="-112.45" y="-883.55" type="line"/>
			<point x="-137.45" y="-3.55" type="line"/>
		</contour>
	</outline>
</glyph>
<glyph name="neg.-89" format="2">
	<advance width="25"/>
	<outline>
		<contour>
			<point x="112.451" y="3.51" type="line"/>
			<point x="137.451" y="-886.49" type="line"/>
			<point x="-112.451" y="-893.51" type="line"/>
			<point x="-137.451" y="-3.51" type="line"/>
		</contour>
	</outline>
</glyph>
<glyph name="neg.-9" format="2">
	<advance width="25"/>
	<outline>
		<contour>
			<point x="83.852" y="26.764" type="line"/>
			<point x="108.852" y="-63.236" type="line"/>
			<point x="-83.852" y="-116.764" type="line"/>
			<point x="-108.852" y="-26.764" type="line"/>
		</contour>
	</outline>
</glyph>
<glyph name="neg.-90" format="2">
	<advance width="25"/>
	<outline>
		<contour>
			<point x="112.452" y="3.471" type="line"/>
			<point x="137.452" y="-896.529" type="line"/>
			<point x="-112.452" y="-903.471" type="line"/>
			<point x="-137.452" y="-3.471" type="line"/>
		</contour>
	</outline>
</glyph>
<glyph name="neg.-91" format="2">
	<advance width="25"/>
	<outline>
		<contour>
			<point x="87.462" y="2.746" type="line"/>
			<point x="112.462" y="-907.254" type="line"/>
			<point x="-87.462" y="-912.746" type="line"/>
			<point x="-112.462" y="-2.746" type="line"/>
		</contour>
	</outline>
</glyph>
<glyph name="neg.-92" format="2">
	<advance width="25"/>
	<outline>
		<contour>
			<point x="115.453" y="3.477" type="line"/>
			<point x="140.453" y="-916.523" type="line"/>
			<point x="-115.453" y="-923.477" type="line"/>
			<point x="-140.453" y="-3.477" type="line"/>
		</contour>
	</outline>
</glyph>
<glyph name="neg.-93" format="2">
	<advance width="25"/>
	<outline>
		<contour>
			<point x="112.455" y="3.359" type="line"/>
			<point x="137.455" y="-926.641" type="line"/>
			<point x="-112.455" y="-933.359" type="line"/>
			<point x="-137.455" y="-3.359" type="line"/>
		</contour>
	</outline>
</glyph>
<glyph name="neg.-94" format="2">
	<advance width="25"/>
	<outline>
		<contour>
			<point x="112.456" y="3.323" type="line"/>
			<point x="137.456" y="-936.677" type="line"/>
			<point x="-112.456" y="-943.323" type="line"/>
			<point x="-137.456" y="-3.323" type="line"/>
		</contour>
	</outline>
</glyph>
<glyph name="neg.-95" format="2">
	<advance width="25"/>
	<outline>
		<contour>
			<point x="112.457" y="3.288" type="line"/>
			<point x="137.457" y="-946.712" type="line"/>
			<point x="-112.457" y="-953.288" type="line"/>
			<point x="-137.457" y="-3.288" type="line"/>
		</contour>
	</outline>
</glyph>
<glyph name="neg.-96" format="2">
	<advance width="25"/>
	<outline>
		<contour>
			<point x="112.458" y="3.254" type="line"/>
			<point x="137.458" y="-956.746" type="line"/>
			<point x="-112.458" y="-963.254" type="line"/>
			<point x="-137.458" y="-3.254" type="line"/>
		</contour>
	</outline>
</glyph>
<glyph name="neg.-97" format="2">
	<advance width="25"/>
	<outline>
		<contour>
			<point x="112.459" y="3.221" type="line"/>
			<point x="137.459" y="-966.779" type="line"/>
			<point x="-112.459" y="-973.221" type="line"/>
			<point x="-137.459" y="-3.221" type="line"/>
		</contour>
	</outline>
</glyph>
<glyph name="neg.-98" format="2">
	<advance width="25"/>
	<outline>
		<contour>
			<point x="112.459" y="3.188" type="line"/>
			<point x="137.459" y="-976.812" type="line"/>
			<point x="-112.459" y="-983.188" type="line"/>
			<point x="-137.459" y="-3.188" type="line"/>
		</contour>
	</outline>
</glyph>
<glyph name="neg.-99" format="2">
	<advance width="25"/>
	<outline>
		<contour>
			<point x="115.459" y="3.231" type="line"/>
			<point x="140.459" y="-986.769" type="line"/>
			<point x="-115.459" y="-993.231" type="line"/>
			<point x="-140.459" y="-3.231" type="line"/>
		</contour>
	</outline>
</glyph>
<glyph name="point" format="2">
	<outline>
		<contour>
			<point x="-50" y="-27.5"/>
			<point x="-50" y="0" type="curve" smooth="yes"/>
			<point x="-50" y="27.5"/>
			<point x="-27.5" y="50"/>
			<point x="0" y="50" type="curve" smooth="yes"/>
			<point x="27.5" y="50"/>
			<point x="50" y="27.5"/>
			<point x="50" y="0" type="curve" smooth="yes"/>
			<point x="50" y="-27.5"/>
			<point x="27.5" y="-50"/>
			<point x="0" y="-50" type="curve" smooth="yes"/>
			<point x="-27.5" y="-50"/>
		</contour>
	</outline>
</glyph>
<glyph name="pos.10" format="2">
	<advance width="25"/>
	<outline>
		<contour>
			<point x="-136.678" y="31.045" type="line"/>
			<point x="-111.678" y="131.045" type="line"/>
			<point x="136.678" y="68.955" type="line"/>
			<point x="111.678" y="-31.045" type="line"/>
		</contour>
	</outline>
</glyph>
<glyph name="pos.100" format="2">
	<advance width="25"/>
	<outline>
		<contour>
			<point x="-137.461" y="3.124" type="line"/>
			<point x="-112.461" y="1003.124" type="line"/>
			<point x="137.461" y="996.876" type="line"/>
			<point x="112.461" y="-3.124" type="line"/>
		</contour>
	</outline>
</glyph>
<glyph name="pos.102" format="2">
	<advance width="25"/>
	<outline>
		<contour>
			<point x="-112.47" y="2.45" type="line"/>
			<point x="-87.47" y="1022.45" type="line"/>
			<point x="112.47" y="1017.55" type="line"/>
			<point x="87.47" y="-2.45" type="line"/>
		</contour>
	</outline>
</glyph>
<glyph name="pos.103" format="2">
	<advance width="25"/>
	<outline>
		<contour>
			<point x="-112.471" y="2.426" type="line"/>
			<point x="-87.471" y="1032.426" type="line"/>
			<point x="112.471" y="1027.574" type="line"/>
			<point x="87.471" y="-2.426" type="line"/>
		</contour>
	</outline>
</glyph>
<glyph name="pos.105" format="2">
	<advance width="25"/>
	<outline>
		<contour>
			<point x="-112.472" y="2.38" type="line"/>
			<point x="-87.472" y="1052.38" type="line"/>
			<point x="112.472" y="1047.62" type="line"/>
			<point x="87.472" y="-2.38" type="line"/>
		</contour>
	</outline>
</glyph>
<glyph name="pos.106" format="2">
	<advance width="25"/>
	<outline>
		<contour>
			<point x="-112.472" y="2.358" type="line"/>
			<point x="-87.472" y="1062.358" type="line"/>
			<point x="112.472" y="1057.642" type="line"/>
			<point x="87.472" y="-2.358" type="line"/>
		</contour>
	</outline>
</glyph>
<glyph name="pos.109" format="2">
	<advance width="25"/>
	<outline>
		<contour>
			<point x="-140.466" y="2.935" type="line"/>
			<point x="-115.466" y="1092.935" type="line"/>
			<point x="140.466" y="1087.065" type="line"/>
			<point x="115.466" y="-2.935" type="line"/>
		</contour>
	</outline>
</glyph>
<glyph name="pos.11" format="2">
	<advance width="25"/>
	<outline>
		<contour>
			<point x="-137.317" y="28.368" type="line"/>
			<point x="-112.317" y="138.368" type="line"/>
			<point x="137.317" y="81.632" type="line"/>
			<point x="112.317" y="-28.368" type="line"/>
		</contour>
	</outline>
</glyph>
<glyph name="pos.110" format="2">
	<advance width="25"/>
	<outline>
		<contour>
			<point x="-112.474" y="2.272" type="line"/>
			<point x="-87.474" y="1102.272" type="line"/>
			<point x="112.474" y="1097.728" type="line"/>
			<point x="87.474" y="-2.272" type="line"/>
		</contour>
	</outline>
</glyph>
<glyph name="pos.111" format="2">
	<advance width="25"/>
	<outline>
		<contour>
			<point x="-137.468" y="2.815" type="line"/>
			<point x="-112.468" y="1112.815" type="line"/>
			<point x="137.468" y="1107.185" type="line"/>
			<point x="112.468" y="-2.815" type="line"/>
		</contour>
	</outline>
</glyph>
<glyph name="pos.112" format="2">
	<advance width="25"/>
	<outline>
		<contour>
			<point x="-137.469" y="2.789" type="line"/>
			<point x="-112.469" y="1122.789" type="line"/>
			<point x="137.469" y="1117.211" type="line"/>
			<point x="112.469" y="-2.789" type="line"/>
		</contour>
	</outline>
</glyph>
<glyph name="pos.114" format="2">
	<advance width="25"/>
	<outline>
		<contour>
			<point x="-140.469" y="2.806" type="line"/>
			<point x="-115.469" y="1142.806" type="line"/>
			<point x="140.469" y="1137.194" type="line"/>
			<point x="115.469" y="-2.806" type="line"/>
		</contour>
	</outline>
</glyph>
<glyph name="pos.115" format="2">
	<advance width="25"/>
	<outline>
		<contour>
			<point x="-137.47" y="2.717" type="line"/>
			<point x="-112.47" y="1152.717" type="line"/>
			<point x="137.47" y="1147.283" type="line"/>
			<point x="112.47" y="-2.717" type="line"/>
		</contour>
	</outline>
</glyph>
<glyph name="pos.116" format="2">
	<advance width="25"/>
	<outline>
		<contour>
			<point x="-140.47" y="2.758" type="line"/>
			<point x="-115.47" y="1162.758" type="line"/>
			<point x="140.47" y="1157.242" type="line"/>
			<point x="115.47" y="-2.758" type="line"/>
		</contour>
	</outline>
</glyph>
<glyph name="pos.117" format="2">
	<advance width="25"/>
	<outline>
		<contour>
			<point x="-137.471" y="2.67" type="line"/>
			<point x="-112.471" y="1172.67" type="line"/>
			<point x="137.471" y="1167.33" type="line"/>
			<point x="112.471" y="-2.67" type="line"/>
		</contour>
	</outline>
</glyph>
<glyph name="pos.12" format="2">
	<advance width="25"/>
	<outline>
		<contour>
			<point x="-110.398" y="20.395" type="line"/>
			<point x="-85.398" y="140.395" type="line"/>
			<point x="110.398" y="99.605" type="line"/>
			<point x="85.398" y="-20.395" type="line"/>
		</contour>
	</outline>
</glyph>
<glyph name="pos.120" format="2">
	<advance width="25"/>
	<outline>
		<contour>
			<point x="-140.472" y="2.666" type="line"/>
			<point x="-115.472" y="1202.666" type="line"/>
			<point x="140.472" y="1197.334" type="line"/>
			<point x="115.472" y="-2.666" type="line"/>
		</contour>
	</outline>
</glyph>
<glyph name="pos.121" format="2">
	<advance width="25"/>
	<outline>
		<contour>
			<point x="-140.473" y="2.644" type="line"/>
			<point x="-115.473" y="1212.644" type="line"/>
			<point x="140.473" y="1207.356" type="line"/>
			<point x="115.473" y="-2.644" type="line"/>
		</contour>
	</outline>
</glyph>
<glyph name="pos.122" format="2">
	<advance width="25"/>
	<outline>
		<contour>
			<point x="-140.473" y="2.622" type="line"/>
			<point x="-115.473" y="1222.622" type="line"/>
			<point x="140.473" y="1217.378" type="line"/>
			<point x="115.473" y="-2.622" type="line"/>
		</contour>
	</outline>
</glyph>
<glyph name="pos.123" format="2">
	<advance width="25"/>
	<outline>
		<contour>
			<point x="-140.474" y="2.601" type="line"/>
			<point x="-115.474" y="1232.601" type="line"/>
			<point x="140.474" y="1227.399" type="line"/>
			<point x="115.474" y="-2.601" type="line"/>
		</contour>
	</outline>
</glyph>
<glyph name="pos.125" format="2">
	<advance width="25"/>
	<outline>
		<contour>
			<point x="-112.48" y="1" type="line"/>
			<point x="-87.48" y="1251" type="line"/>
			<point x="112.48" y="1248" type="line"/>
			<point x="87.48" y="-1" type="line"/>
		</contour>
	</outline>
</glyph>
<glyph name="pos.126" format="2">
	<advance width="25"/>
	<outline>
		<contour>
			<point x="-140.475" y="2.539" type="line"/>
			<point x="-115.475" y="1262.539" type="line"/>
			<point x="140.475" y="1257.461" type="line"/>
			<point x="115.475" y="-2.539" type="line"/>
		</contour>
	</outline>
</glyph>
<glyph name="pos.127" format="2">
	<advance width="25"/>
	<outline>
		<contour>
			<point x="-140.475" y="2.519" type="line"/>
			<point x="-115.475" y="1272.519" type="line"/>
			<point x="140.475" y="1267.481" type="line"/>
			<point x="115.475" y="-2.519" type="line"/>
		</contour>
	</outline>
</glyph>
<glyph name="pos.13" format="2">
	<advance width="25"/>
	<outline>
		<contour>
			<point x="-110.701" y="18.885" type="line"/>
			<point x="-85.701" y="148.885" type="line"/>
			<point x="110.701" y="111.115" type="line"/>
			<point x="85.701" y="-18.885" type="line"/>
		</contour>
	</outline>
</glyph>
<glyph name="pos.15" format="2">
	<advance width="25"/>
	<outline>
		<contour>
			<point x="-138.758" y="21.043" type="line"/>
			<point x="-113.758" y="171.043" type="line"/>
			<point x="138.758" y="128.957" type="line"/>
			<point x="113.758" y="-21.043" type="line"/>
		</contour>
	</outline>
</glyph>
<glyph name="pos.16" format="2">
	<advance width="25"/>
	<outline>
		<contour>
			<point x="-111.301" y="15.438" type="line"/>
			<point x="-86.301" y="175.438" type="line"/>
			<point x="111.301" y="144.562" type="line"/>
			<point x="86.301" y="-15.438" type="line"/>
		</contour>
	</outline>
</glyph>
<glyph name="pos.17" format="2">
	<advance width="25"/>
	<outline>
		<contour>
			<point x="-136.17" y="18.187" type="line"/>
			<point x="-111.17" y="188.187" type="line"/>
			<point x="136.17" y="151.813" type="line"/>
			<point x="111.17" y="-18.187" type="line"/>
		</contour>
	</outline>
</glyph>
<glyph name="pos.18" format="2">
	<advance width="25"/>
	<outline>
		<contour>
			<point x="-136.312" y="17.196" type="line"/>
			<point x="-111.312" y="197.196" type="line"/>
			<point x="136.312" y="162.804" type="line"/>
			<point x="111.312" y="-17.196" type="line"/>
		</contour>
	</outline>
</glyph>
<glyph name="pos.19" format="2">
	<advance width="25"/>
	<outline>
		<contour>
			<point x="-136.432" y="16.307" type="line"/>
			<point x="-111.432" y="206.307" type="line"/>
			<point x="136.432" y="173.693" type="line"/>
			<point x="111.432" y="-16.307" type="line"/>
		</contour>
	</outline>
</glyph>
<glyph name="pos.2" format="2">
	<advance width="25"/>
	<outline>
		<contour>
			<point x="-90.587" y="97.609" type="line"/>
			<point x="-65.587" y="117.609" type="line"/>
			<point x="90.587" y="-77.609" type="line"/>
			<point x="65.587" y="-97.609" type="line"/>
		</contour>
	</outline>
</glyph>
<glyph name="pos.20" format="2">
	<advance width="25"/>
	<outline>
		<contour>
			<point x="-136.535" y="15.504" type="line"/>
			<point x="-111.535" y="215.504" type="line"/>
			<point x="136.535" y="184.496" type="line"/>
			<point x="111.535" y="-15.504" type="line"/>
		</contour>
	</outline>
</glyph>
<glyph name="pos.21" format="2">
	<advance width="25"/>
	<outline>
		<contour>
			<point x="-136.624" y="14.777" type="line"/>
			<point x="-111.624" y="224.777" type="line"/>
			<point x="136.624" y="195.223" type="line"/>
			<point x="111.624" y="-14.777" type="line"/>
		</contour>
	</outline>
</glyph>
<glyph name="pos.24" format="2">
	<advance width="25"/>
	<outline>
		<contour>
			<point x="-136.827" y="12.951" type="line"/>
			<point x="-111.827" y="252.951" type="line"/>
			<point x="136.827" y="227.049" type="line"/>
			<point x="111.827" y="-12.951" type="line"/>
		</contour>
	</outline>
</glyph>
<glyph name="pos.26" format="2">
	<advance width="25"/>
	<outline>
		<contour>
			<point x="-139.912" y="12.251" type="line"/>
			<point x="-114.912" y="272.251" type="line"/>
			<point x="139.912" y="247.749" type="line"/>
			<point x="114.912" y="-12.251" type="line"/>
		</contour>
	</outline>
</glyph>
<glyph name="pos.27" format="2">
	<advance width="25"/>
	<outline>
		<contour>
			<point x="-136.968" y="11.525" type="line"/>
			<point x="-111.968" y="281.525" type="line"/>
			<point x="136.968" y="258.475" type="line"/>
			<point x="111.968" y="-11.525" type="line"/>
		</contour>
	</outline>
</glyph>
<glyph name="pos.29" format="2">
	<advance width="25"/>
	<outline>
		<contour>
			<point x="-140.027" y="10.994" type="line"/>
			<point x="-115.027" y="300.994" type="line"/>
			<point x="140.027" y="279.006" type="line"/>
			<point x="115.027" y="-10.994" type="line"/>
		</contour>
	</outline>
</glyph>
<glyph name="pos.3" format="2">
	<advance width="25"/>
	<outline>
		<contour>
			<point x="-110.832" y="81.944" type="line"/>
			<point x="-85.832" y="111.944" type="line"/>
			<point x="110.832" y="-51.944" type="line"/>
			<point x="85.832" y="-81.944" type="line"/>
		</contour>
	</outline>
</glyph>
<glyph name="pos.30" format="2">
	<advance width="25"/>
	<outline>
		<contour>
			<point x="-137.068" y="10.381" type="line"/>
			<point x="-112.068" y="310.381" type="line"/>
			<point x="137.068" y="289.619" type="line"/>
			<point x="112.068" y="-10.381" type="line"/>
		</contour>
	</outline>
</glyph>
<glyph name="pos.31" format="2">
	<advance width="25"/>
	<outline>
		<contour>
			<point x="-137.095" y="10.048" type="line"/>
			<point x="-112.095" y="320.048" type="line"/>
			<point x="137.095" y="299.952" type="line"/>
			<point x="112.095" y="-10.048" type="line"/>
		</contour>
	</outline>
</glyph>
<glyph name="pos.33" format="2">
	<advance width="25"/>
	<outline>
		<contour>
			<point x="-137.143" y="9.443" type="line"/>
			<point x="-112.143" y="339.443" type="line"/>
			<point x="137.143" y="320.557" type="line"/>
			<point x="112.143" y="-9.443" type="line"/>
		</contour>
	</outline>
</glyph>
<glyph name="pos.34" format="2">
	<advance width="25"/>
	<outline>
		<contour>
			<point x="-140.155" y="9.386" type="line"/>
			<point x="-115.155" y="349.386" type="line"/>
			<point x="140.155" y="330.614" type="line"/>
			<point x="115.155" y="-9.386" type="line"/>
		</contour>
	</outline>
</glyph>
<glyph name="pos.35" format="2">
	<advance width="25"/>
	<outline>
		<contour>
			<point x="-137.182" y="8.906" type="line"/>
			<point x="-112.182" y="358.906" type="line"/>
			<point x="137.182" y="341.094" type="line"/>
			<point x="112.182" y="-8.906" type="line"/>
		</contour>
	</outline>
</glyph>
<glyph name="pos.36" format="2">
	<advance width="25"/>
	<outline>
		<contour>
			<point x="-140.192" y="8.868" type="line"/>
			<point x="-115.192" y="368.868" type="line"/>
			<point x="140.192" y="351.132" type="line"/>
			<point x="115.192" y="-8.868" type="line"/>
		</contour>
	</outline>
</glyph>
<glyph name="pos.37" format="2">
	<advance width="25"/>
	<outline>
		<contour>
			<point x="-137.216" y="8.427" type="line"/>
			<point x="-112.216" y="378.427" type="line"/>
			<point x="137.216" y="361.573" type="line"/>
			<point x="112.216" y="-8.427" type="line"/>
		</contour>
	</outline>
</glyph>
<glyph name="pos.38" format="2">
	<advance width="25"/>
	<outline>
		<contour>
			<point x="-140.224" y="8.403" type="line"/>
			<point x="-115.224" y="388.403" type="line"/>
			<point x="140.224" y="371.597" type="line"/>
			<point x="115.224" y="-8.403" type="line"/>
		</contour>
	</outline>
</glyph>
<glyph name="pos.39" format="2">
	<advance width="25"/>
	<outline>
		<contour>
			<point x="-140.238" y="8.188" type="line"/>
			<point x="-115.238" y="398.188" type="line"/>
			<point x="140.238" y="381.812" type="line"/>
			<point x="115.238" y="-8.188" type="line"/>
		</contour>
	</outline>
</glyph>
<glyph name="pos.40" format="2">
	<advance width="25"/>
	<outline>
		<contour>
			<point x="-137.257" y="7.797" type="line"/>
			<point x="-112.257" y="407.797" type="line"/>
			<point x="137.257" y="392.203" type="line"/>
			<point x="112.257" y="-7.797" type="line"/>
		</contour>
	</outline>
</glyph>
<glyph name="pos.41" format="2">
	<advance width="25"/>
	<outline>
		<contour>
			<point x="-137.268" y="7.608" type="line"/>
			<point x="-112.268" y="417.608" type="line"/>
			<point x="137.268" y="402.392" type="line"/>
			<point x="112.268" y="-7.608" type="line"/>
		</contour>
	</outline>
</glyph>
<glyph name="pos.42" format="2">
	<advance width="25"/>
	<outline>
		<contour>
			<point x="-112.323" y="5.942" type="line"/>
			<point x="-87.323" y="425.942" type="line"/>
			<point x="112.323" y="414.058" type="line"/>
			<point x="87.323" y="-5.942" type="line"/>
		</contour>
	</outline>
</glyph>
<glyph name="pos.44" format="2">
	<advance width="25"/>
	<outline>
		<contour>
			<point x="-140.294" y="7.261" type="line"/>
			<point x="-115.294" y="447.261" type="line"/>
			<point x="140.294" y="432.739" type="line"/>
			<point x="115.294" y="-7.261" type="line"/>
		</contour>
	</outline>
</glyph>
<glyph name="pos.45" format="2">
	<advance width="25"/>
	<outline>
		<contour>
			<point x="-140.303" y="7.1" type="line"/>
			<point x="-115.303" y="457.1" type="line"/>
			<point x="140.303" y="442.9" type="line"/>
			<point x="115.303" y="-7.1" type="line"/>
		</contour>
	</outline>
</glyph>
<glyph name="pos.47" format="2">
	<advance width="25"/>
	<outline>
		<contour>
			<point x="-137.324" y="6.64" type="line"/>
			<point x="-112.324" y="476.64" type="line"/>
			<point x="137.324" y="463.36" type="line"/>
			<point x="112.324" y="-6.64" type="line"/>
		</contour>
	</outline>
</glyph>
<glyph name="pos.48" format="2">
	<advance width="25"/>
	<outline>
		<contour>
			<point x="-137.331" y="6.502" type="line"/>
			<point x="-112.331" y="486.502" type="line"/>
			<point x="137.331" y="473.498" type="line"/>
			<point x="112.331" y="-6.502" type="line"/>
		</contour>
	</outline>
</glyph>
<glyph name="pos.49" format="2">
	<advance width="25"/>
	<outline>
		<contour>
			<point x="-137.338" y="6.369" type="line"/>
			<point x="-112.338" y="496.369" type="line"/>
			<point x="137.338" y="483.631" type="line"/>
			<point x="112.338" y="-6.369" type="line"/>
		</contour>
	</outline>
</glyph>
<glyph name="pos.5" format="2">
	<advance width="25"/>
	<outline>
		<contour>
			<point x="-124.303" y="55.902" type="line"/>
			<point x="-99.303" y="105.902" type="line"/>
			<point x="124.303" y="-5.902" type="line"/>
			<point x="99.303" y="-55.902" type="line"/>
		</contour>
	</outline>
</glyph>
<glyph name="pos.50" format="2">
	<advance width="25"/>
	<outline>
		<contour>
			<point x="-140.34" y="6.392" type="line"/>
			<point x="-115.34" y="506.392" type="line"/>
			<point x="140.34" y="493.608" type="line"/>
			<point x="115.34" y="-6.392" type="line"/>
		</contour>
	</outline>
</glyph>
<glyph name="pos.51" format="2">
	<advance width="25"/>
	<outline>
		<contour>
			<point x="-140.346" y="6.267" type="line"/>
			<point x="-115.346" y="516.267" type="line"/>
			<point x="140.346" y="503.733" type="line"/>
			<point x="115.346" y="-6.267" type="line"/>
		</contour>
	</outline>
</glyph>
<glyph name="pos.52" format="2">
	<advance width="25"/>
	<outline>
		<contour>
			<point x="-140.352" y="6.147" type="line"/>
			<point x="-115.352" y="526.147" type="line"/>
			<point x="140.352" y="513.853" type="line"/>
			<point x="115.352" y="-6.147" type="line"/>
		</contour>
	</outline>
</glyph>
<glyph name="pos.53" format="2">
	<advance width="25"/>
	<outline>
		<contour>
			<point x="-140.358" y="6.031" type="line"/>
			<point x="-115.358" y="536.031" type="line"/>
			<point x="140.358" y="523.969" type="line"/>
			<point x="115.358" y="-6.031" type="line"/>
		</contour>
	</outline>
</glyph>
<glyph name="pos.54" format="2">
	<advance width="25"/>
	<outline>
		<contour>
			<point x="-140.363" y="5.92" type="line"/>
			<point x="-115.363" y="545.92" type="line"/>
			<point x="140.363" y="534.08" type="line"/>
			<point x="115.363" y="-5.92" type="line"/>
		</contour>
	</outline>
</glyph>
<glyph name="pos.56" format="2">
	<advance width="25"/>
	<outline>
		<contour>
			<point x="-140.373" y="5.709" type="line"/>
			<point x="-115.373" y="565.709" type="line"/>
			<point x="140.373" y="554.291" type="line"/>
			<point x="115.373" y="-5.709" type="line"/>
		</contour>
	</outline>
</glyph>
<glyph name="pos.58" format="2">
	<advance width="25"/>
	<outline>
		<contour>
			<point x="-140.381" y="5.512" type="line"/>
			<point x="-115.381" y="585.512" type="line"/>
			<point x="140.381" y="574.488" type="line"/>
			<point x="115.381" y="-5.512" type="line"/>
		</contour>
	</outline>
</glyph>
<glyph name="pos.6" format="2">
	<advance width="25"/>
	<outline>
		<contour>
			<point x="-104.808" y="38.462" type="line"/>
			<point x="-79.808" y="98.462" type="line"/>
			<point x="104.808" y="21.538" type="line"/>
			<point x="79.808" y="-38.462" type="line"/>
		</contour>
	</outline>
</glyph>
<glyph name="pos.61" format="2">
	<advance width="25"/>
	<outline>
		<contour>
			<point x="-137.395" y="5.119" type="line"/>
			<point x="-112.395" y="615.119" type="line"/>
			<point x="137.395" y="604.881" type="line"/>
			<point x="112.395" y="-5.119" type="line"/>
		</contour>
	</outline>
</glyph>
<glyph name="pos.62" format="2">
	<advance width="25"/>
	<outline>
		<contour>
			<point x="-137.399" y="5.036" type="line"/>
			<point x="-112.399" y="625.036" type="line"/>
			<point x="137.399" y="614.964" type="line"/>
			<point x="112.399" y="-5.036" type="line"/>
		</contour>
	</outline>
</glyph>
<glyph name="pos.63" format="2">
	<advance width="25"/>
	<outline>
		<contour>
			<point x="-140.399" y="5.075" type="line"/>
			<point x="-115.399" y="635.075" type="line"/>
			<point x="140.399" y="624.925" type="line"/>
			<point x="115.399" y="-5.075" type="line"/>
		</contour>
	</outline>
</glyph>
<glyph name="pos.64" format="2">
	<advance width="25"/>
	<outline>
		<contour>
			<point x="-140.402" y="4.996" type="line"/>
			<point x="-115.402" y="644.996" type="line"/>
			<point x="140.402" y="635.004" type="line"/>
			<point x="115.402" y="-4.996" type="line"/>
		</contour>
	</outline>
</glyph>
<glyph name="pos.65" format="2">
	<advance width="25"/>
	<outline>
		<contour>
			<point x="-140.405" y="4.919" type="line"/>
			<point x="-115.405" y="654.919" type="line"/>
			<point x="140.405" y="645.081" type="line"/>
			<point x="115.405" y="-4.919" type="line"/>
		</contour>
	</outline>
</glyph>
<glyph name="pos.66" format="2">
	<advance width="25"/>
	<outline>
		<contour>
			<point x="-140.408" y="4.845" type="line"/>
			<point x="-115.408" y="664.845" type="line"/>
			<point x="140.408" y="655.155" type="line"/>
			<point x="115.408" y="-4.845" type="line"/>
		</contour>
	</outline>
</glyph>
<glyph name="pos.67" format="2">
	<advance width="25"/>
	<outline>
		<contour>
			<point x="-140.411" y="4.773" type="line"/>
			<point x="-115.411" y="674.773" type="line"/>
			<point x="140.411" y="665.227" type="line"/>
			<point x="115.411" y="-4.773" type="line"/>
		</contour>
	</outline>
</glyph>
<glyph name="pos.68" format="2">
	<advance width="25"/>
	<outline>
		<contour>
			<point x="-140.414" y="4.703" type="line"/>
			<point x="-115.414" y="684.703" type="line"/>
			<point x="140.414" y="675.297" type="line"/>
			<point x="115.414" y="-4.703" type="line"/>
		</contour>
	</outline>
</glyph>
<glyph name="pos.69" format="2">
	<advance width="25"/>
	<outline>
		<contour>
			<point x="-137.418" y="4.526" type="line"/>
			<point x="-112.418" y="694.526" type="line"/>
			<point x="137.418" y="685.474" type="line"/>
			<point x="112.418" y="-4.526" type="line"/>
		</contour>
	</outline>
</glyph>
<glyph name="pos.7" format="2">
	<advance width="25"/>
	<outline>
		<contour>
			<point x="-133.043" y="43.051" type="line"/>
			<point x="-108.043" y="113.051" type="line"/>
			<point x="133.043" y="26.949" type="line"/>
			<point x="108.043" y="-43.051" type="line"/>
		</contour>
	</outline>
</glyph>
<glyph name="pos.70" format="2">
	<advance width="25"/>
	<outline>
		<contour>
			<point x="-137.42" y="4.461" type="line"/>
			<point x="-112.42" y="704.461" type="line"/>
			<point x="137.42" y="695.539" type="line"/>
			<point x="112.42" y="-4.461" type="line"/>
		</contour>
	</outline>
</glyph>
<glyph name="pos.71" format="2">
	<advance width="25"/>
	<outline>
		<contour>
			<point x="-137.423" y="4.399" type="line"/>
			<point x="-112.423" y="714.399" type="line"/>
			<point x="137.423" y="705.601" type="line"/>
			<point x="112.423" y="-4.399" type="line"/>
		</contour>
	</outline>
</glyph>
<glyph name="pos.72" format="2">
	<advance width="25"/>
	<outline>
		<contour>
			<point x="-140.423" y="4.442" type="line"/>
			<point x="-115.423" y="724.442" type="line"/>
			<point x="140.423" y="715.558" type="line"/>
			<point x="115.423" y="-4.442" type="line"/>
		</contour>
	</outline>
</glyph>
<glyph name="pos.73" format="2">
	<advance width="25"/>
	<outline>
		<contour>
			<point x="-140.425" y="4.381" type="line"/>
			<point x="-115.425" y="734.381" type="line"/>
			<point x="140.425" y="725.619" type="line"/>
			<point x="115.425" y="-4.381" type="line"/>
		</contour>
	</outline>
</glyph>
<glyph name="pos.74" format="2">
	<advance width="25"/>
	<outline>
		<contour>
			<point x="-137.429" y="4.221" type="line"/>
			<point x="-112.429" y="744.221" type="line"/>
			<point x="137.429" y="735.779" type="line"/>
			<point x="112.429" y="-4.221" type="line"/>
		</contour>
	</outline>
</glyph>
<glyph name="pos.75" format="2">
	<advance width="25"/>
	<outline>
		<contour>
			<point x="-112.444" y="3.331" type="line"/>
			<point x="-87.444" y="753.331" type="line"/>
			<point x="112.444" y="746.669" type="line"/>
			<point x="87.444" y="-3.331" type="line"/>
		</contour>
	</outline>
</glyph>
<glyph name="pos.76" format="2">
	<advance width="25"/>
	<outline>
		<contour>
			<point x="-112.446" y="3.288" type="line"/>
			<point x="-87.446" y="763.288" type="line"/>
			<point x="112.446" y="756.712" type="line"/>
			<point x="87.446" y="-3.288" type="line"/>
		</contour>
	</outline>
</glyph>
<glyph name="pos.77" format="2">
	<advance width="25"/>
	<outline>
		<contour>
			<point x="-140.433" y="4.154" type="line"/>
			<point x="-115.433" y="774.154" type="line"/>
			<point x="140.433" y="765.846" type="line"/>
			<point x="115.433" y="-4.154" type="line"/>
		</contour>
	</outline>
</glyph>
<glyph name="pos.78" format="2">
	<advance width="25"/>
	<outline>
		<contour>
			<point x="-140.434" y="4.1" type="line"/>
			<point x="-115.434" y="784.1" type="line"/>
			<point x="140.434" y="775.9" type="line"/>
			<point x="115.434" y="-4.1" type="line"/>
		</contour>
	</outline>
</glyph>
<glyph name="pos.8" format="2">
	<advance width="25"/>
	<outline>
		<contour>
			<point x="-131.81" y="37.284" type="line"/>
			<point x="-106.81" y="117.284" type="line"/>
			<point x="131.81" y="42.716" type="line"/>
			<point x="106.81" y="-37.284" type="line"/>
		</contour>
	</outline>
</glyph>
<glyph name="pos.80" format="2">
	<advance width="25"/>
	<outline>
		<contour>
			<point x="-137.439" y="3.904" type="line"/>
			<point x="-112.439" y="803.904" type="line"/>
			<point x="137.439" y="796.096" type="line"/>
			<point x="112.439" y="-3.904" type="line"/>
		</contour>
	</outline>
</glyph>
<glyph name="pos.81" format="2">
	<advance width="25"/>
	<outline>
		<contour>
			<point x="-112.452" y="3.085" type="line"/>
			<point x="-87.452" y="813.085" type="line"/>
			<point x="112.452" y="806.915" type="line"/>
			<point x="87.452" y="-3.085" type="line"/>
		</contour>
	</outline>
</glyph>
<glyph name="pos.82" format="2">
	<advance width="25"/>
	<outline>
		<contour>
			<point x="-140.441" y="3.901" type="line"/>
			<point x="-115.441" y="823.901" type="line"/>
			<point x="140.441" y="816.099" type="line"/>
			<point x="115.441" y="-3.901" type="line"/>
		</contour>
	</outline>
</glyph>
<glyph name="pos.83" format="2">
	<advance width="25"/>
	<outline>
		<contour>
			<point x="-140.442" y="3.854" type="line"/>
			<point x="-115.442" y="833.854" type="line"/>
			<point x="140.442" y="826.146" type="line"/>
			<point x="115.442" y="-3.854" type="line"/>
		</contour>
	</outline>
</glyph>
<glyph name="pos.84" format="2">
	<advance width="25"/>
	<outline>
		<contour>
			<point x="-140.443" y="3.808" type="line"/>
			<point x="-115.443" y="843.808" type="line"/>
			<point x="140.443" y="836.192" type="line"/>
			<point x="115.443" y="-3.808" type="line"/>
		</contour>
	</outline>
</glyph>
<glyph name="pos.85" format="2">
	<advance width="25"/>
	<outline>
		<contour>
			<point x="-112.457" y="2.94" type="line"/>
			<point x="-87.457" y="852.94" type="line"/>
			<point x="112.457" y="847.06" type="line"/>
			<point x="87.457" y="-2.94" type="line"/>
		</contour>
	</outline>
</glyph>
<glyph name="pos.86" format="2">
	<advance width="25"/>
	<outline>
		<contour>
			<point x="-137.447" y="3.632" type="line"/>
			<point x="-112.447" y="863.632" type="line"/>
			<point x="137.447" y="856.368" type="line"/>
			<point x="112.447" y="-3.632" type="line"/>
		</contour>
	</outline>
</glyph>
<glyph name="pos.88" format="2">
	<advance width="25"/>
	<outline>
		<contour>
			<point x="-112.46" y="2.84" type="line"/>
			<point x="-87.46" y="882.84" type="line"/>
			<point x="112.46" y="877.16" type="line"/>
			<point x="87.46" y="-2.84" type="line"/>
		</contour>
	</outline>
</glyph>
<glyph name="pos.89" format="2">
	<advance width="25"/>
	<outline>
		<contour>
			<point x="-140.45" y="3.594" type="line"/>
			<point x="-115.45" y="893.594" type="line"/>
			<point x="140.45" y="886.406" type="line"/>
			<point x="115.45" y="-3.594" type="line"/>
		</contour>
	</outline>
</glyph>
<glyph name="pos.9" format="2">
	<advance width="25"/>
	<outline>
		<contour>
			<point x="-132.94" y="33.455" type="line"/>
			<point x="-107.94" y="123.455" type="line"/>
			<point x="132.94" y="56.545" type="line"/>
			<point x="107.94" y="-33.455" type="line"/>
		</contour>
	</outline>
</glyph>
<glyph name="pos.91" format="2">
	<advance width="25"/>
	<outline>
		<contour>
			<point x="-140.452" y="3.515" type="line"/>
			<point x="-115.452" y="913.515" type="line"/>
			<point x="140.452" y="906.485" type="line"/>
			<point x="115.452" y="-3.515" type="line"/>
		</contour>
	</outline>
</glyph>
<glyph name="pos.93" format="2">
	<advance width="25"/>
	<outline>
		<contour>
			<point x="-112.464" y="2.687" type="line"/>
			<point x="-87.464" y="932.687" type="line"/>
			<point x="112.464" y="927.313" type="line"/>
			<point x="87.464" y="-2.687" type="line"/>
		</contour>
	</outline>
</glyph>
<glyph name="pos.94" format="2">
	<advance width="25"/>
	<outline>
		<contour>
			<point x="-140.455" y="3.403" type="line"/>
			<point x="-115.455" y="943.403" type="line"/>
			<point x="140.455" y="936.597" type="line"/>
			<point x="115.455" y="-3.403" type="line"/>
		</contour>
	</outline>
</glyph>
<glyph name="pos.95" format="2">
	<advance width="25"/>
	<outline>
		<contour>
			<point x="-140.456" y="3.367" type="line"/>
			<point x="-115.456" y="953.367" type="line"/>
			<point x="140.456" y="946.633" type="line"/>
			<point x="115.456" y="-3.367" type="line"/>
		</contour>
	</outline>
</glyph>
<glyph name="pos.96" format="2">
	<advance width="25"/>
	<outline>
		<contour>
			<point x="-112.466" y="2.603" type="line"/>
			<point x="-87.466" y="962.603" type="line"/>
			<point x="112.466" y="957.397" type="line"/>
			<point x="87.466" y="-2.603" type="line"/>
		</contour>
	</outline>
</glyph>
<glyph name="pos.98" format="2">
	<advance width="25"/>
	<outline>
		<contour>
			<point x="-140.458" y="3.264" type="line"/>
			<point x="-115.458" y="983.264" type="line"/>
			<point x="140.458" y="976.736" type="line"/>
			<point x="115.458" y="-3.264" type="line"/>
		</contour>
	</outline>
</glyph>
<glyph name="pos.99" format="2">
	<advance width="25"/>
	<outline>
		<contour>
			<point x="-137.46" y="3.156" type="line"/>
			<point x="-112.46" y="993.156" type="line"/>
			<point x="137.46" y="986.844" type="line"/>
			<point x="112.46" y="-3.156" type="line"/>
		</contour>
	</outline>
</glyph>
<glyph name="to-1" format="2">
	<advance width="10"/>
	<outline>
		<contour>
			<point x="136" y="141" type="line"/>
			<point x="146" y="131" type="line"/>
			<point x="-136" y="-151" type="line"/>
			<point x="-146" y="-141" type="line"/>
		</contour>
	</outline>
</glyph>
<glyph name="to-10" format="2">
	<advance width="25"/>
	<outline>
		<contour>
			<point x="181.529" y="48.507" type="line"/>
			<point x="206.529" y="-51.493" type="line"/>
			<point x="-181.529" y="-148.507" type="line"/>
			<point x="-206.529" y="-48.507" type="line"/>
		</contour>
	</outline>
</glyph>
<glyph name="to-100" format="2">
	<advance width="25"/>
	<outline>
		<contour>
			<point x="87.469" y="2.499" type="line"/>
			<point x="112.469" y="-997.501" type="line"/>
			<point x="-87.469" y="-1002.499" type="line"/>
			<point x="-112.469" y="-2.499" type="line"/>
		</contour>
	</outline>
</glyph>
<glyph name="to-101" format="2">
	<advance width="25"/>
	<outline>
		<contour>
			<point x="57.479" y="1.732" type="line"/>
			<point x="82.479" y="-1008.268" type="line"/>
			<point x="-57.479" y="-1011.732" type="line"/>
			<point x="-82.479" y="-1.732" type="line"/>
		</contour>
	</outline>
</glyph>
<glyph name="to-102" format="2">
	<advance width="25"/>
	<outline>
		<contour>
			<point x="37.485" y="1.225" type="line"/>
			<point x="62.485" y="-1018.775" type="line"/>
			<point x="-37.485" y="-1021.225" type="line"/>
			<point x="-62.485" y="-1.225" type="line"/>
		</contour>
	</outline>
</glyph>
<glyph name="to-103" format="2">
	<advance width="25"/>
	<outline>
		<contour>
			<point x="37.485" y="1.213" type="line"/>
			<point x="62.485" y="-1028.787" type="line"/>
			<point x="-37.485" y="-1031.213" type="line"/>
			<point x="-62.485" y="-1.213" type="line"/>
		</contour>
	</outline>
</glyph>
<glyph name="to-104" format="2">
	<advance width="25"/>
	<outline>
		<contour>
			<point x="37.486" y="1.202" type="line"/>
			<point x="62.486" y="-1038.798" type="line"/>
			<point x="-37.486" y="-1041.202" type="line"/>
			<point x="-62.486" y="-1.202" type="line"/>
		</contour>
	</outline>
</glyph>
<glyph name="to-105" format="2">
	<advance width="25"/>
	<outline>
		<contour>
			<point x="189.443" y="4.808" type="line"/>
			<point x="214.443" y="-1045.192" type="line"/>
			<point x="-189.443" y="-1054.808" type="line"/>
			<point x="-214.443" y="-4.808" type="line"/>
		</contour>
	</outline>
</glyph>
<glyph name="to-106" format="2">
	<advance width="25"/>
	<outline>
		<contour>
			<point x="37.486" y="1.179" type="line"/>
			<point x="62.486" y="-1058.821" type="line"/>
			<point x="-37.486" y="-1061.179" type="line"/>
			<point x="-62.486" y="-1.179" type="line"/>
		</contour>
	</outline>
</glyph>
<glyph name="to-107" format="2">
	<advance width="25"/>
	<outline>
		<contour>
			<point x="87.473" y="2.336" type="line"/>
			<point x="112.473" y="-1067.664" type="line"/>
			<point x="-87.473" y="-1072.336" type="line"/>
			<point x="-112.473" y="-2.336" type="line"/>
		</contour>
	</outline>
</glyph>
<glyph name="to-108" format="2">
	<advance width="25"/>
	<outline>
		<contour>
			<point x="187.446" y="4.628" type="line"/>
			<point x="212.446" y="-1075.372" type="line"/>
			<point x="-187.446" y="-1084.628" type="line"/>
			<point x="-212.446" y="-4.628" type="line"/>
		</contour>
	</outline>
</glyph>
<glyph name="to-109" format="2">
	<advance width="25"/>
	<outline>
		<contour>
			<point x="87.474" y="2.293" type="line"/>
			<point x="112.474" y="-1087.707" type="line"/>
			<point x="-87.474" y="-1092.293" type="line"/>
			<point x="-112.474" y="-2.293" type="line"/>
		</contour>
	</outline>
</glyph>
<glyph name="to-11" format="2">
	<advance width="25"/>
	<outline>
		<contour>
			<point x="36.257" y="11.081" type="line"/>
			<point x="61.257" y="-98.919" type="line"/>
			<point x="-36.257" y="-121.081" type="line"/>
			<point x="-61.257" y="-11.081" type="line"/>
		</contour>
	</outline>
</glyph>
<glyph name="to-110" format="2">
	<advance width="25"/>
	<outline>
		<contour>
			<point x="57.482" y="1.59" type="line"/>
			<point x="82.482" y="-1098.41" type="line"/>
			<point x="-57.482" y="-1101.59" type="line"/>
			<point x="-82.482" y="-1.59" type="line"/>
		</contour>
	</outline>
</glyph>
<glyph name="to-111" format="2">
	<advance width="25"/>
	<outline>
		<contour>
			<point x="189.449" y="4.548" type="line"/>
			<point x="214.449" y="-1105.452" type="line"/>
			<point x="-189.449" y="-1114.548" type="line"/>
			<point x="-214.449" y="-4.548" type="line"/>
		</contour>
	</outline>
</glyph>
<glyph name="to-112" format="2">
	<advance width="25"/>
	<outline>
		<contour>
			<point x="187.45" y="4.463" type="line"/>
			<point x="212.45" y="-1115.537" type="line"/>
			<point x="-187.45" y="-1124.463" type="line"/>
			<point x="-212.45" y="-4.463" type="line"/>
		</contour>
	</outline>
</glyph>
<glyph name="to-115" format="2">
	<advance width="25"/>
	<outline>
		<contour>
			<point x="57.483" y="1.521" type="line"/>
			<point x="82.483" y="-1148.479" type="line"/>
			<point x="-57.483" y="-1151.521" type="line"/>
			<point x="-82.483" y="-1.521" type="line"/>
		</contour>
	</outline>
</glyph>
<glyph name="to-116" format="2">
	<advance width="10"/>
	<outline>
		<contour>
			<point x="195" y="2" type="line"/>
			<point x="205" y="-1158" type="line"/>
			<point x="-195" y="-1162" type="line"/>
			<point x="-205" y="-2" type="line"/>
		</contour>
	</outline>
</glyph>
<glyph name="to-117" format="2">
	<advance width="25"/>
	<outline>
		<contour>
			<point x="57.484" y="1.495" type="line"/>
			<point x="82.484" y="-1168.505" type="line"/>
			<point x="-57.484" y="-1171.495" type="line"/>
			<point x="-82.484" y="-1.495" type="line"/>
		</contour>
	</outline>
</glyph>
<glyph name="to-118" format="2">
	<advance width="25"/>
	<outline>
		<contour>
			<point x="189.455" y="4.279" type="line"/>
			<point x="214.455" y="-1175.721" type="line"/>
			<point x="-189.455" y="-1184.279" type="line"/>
			<point x="-214.455" y="-4.279" type="line"/>
		</contour>
	</outline>
</glyph>
<glyph name="to-119" format="2">
	<advance width="10"/>
	<outline>
		<contour>
			<point x="195" y="2" type="line"/>
			<point x="205" y="-1188" type="line"/>
			<point x="-195" y="-1192" type="line"/>
			<point x="-205" y="-2" type="line"/>
		</contour>
	</outline>
</glyph>
<glyph name="to-12" format="2">
	<advance width="25"/>
	<outline>
		<contour>
			<point x="183.296" y="40.791" type="line"/>
			<point x="208.296" y="-79.209" type="line"/>
			<point x="-183.296" y="-160.791" type="line"/>
			<point x="-208.296" y="-40.791" type="line"/>
		</contour>
	</outline>
</glyph>
<glyph name="to-120" format="2">
	<advance width="25"/>
	<outline>
		<contour>
			<point x="87.478" y="2.083" type="line"/>
			<point x="112.478" y="-1197.917" type="line"/>
			<point x="-87.478" y="-1202.083" type="line"/>
			<point x="-112.478" y="-2.083" type="line"/>
		</contour>
	</outline>
</glyph>
<glyph name="to-121" format="2">
	<advance width="25"/>
	<outline>
		<contour>
			<point x="187.457" y="4.131" type="line"/>
			<point x="212.457" y="-1205.869" type="line"/>
			<point x="-187.457" y="-1214.131" type="line"/>
			<point x="-212.457" y="-4.131" type="line"/>
		</contour>
	</outline>
</glyph>
<glyph name="to-122" format="2">
	<advance width="25"/>
	<outline>
		<contour>
			<point x="57.485" y="1.434" type="line"/>
			<point x="82.485" y="-1218.566" type="line"/>
			<point x="-57.485" y="-1221.434" type="line"/>
			<point x="-82.485" y="-1.434" type="line"/>
		</contour>
	</outline>
</glyph>
<glyph name="to-123" format="2">
	<advance width="25"/>
	<outline>
		<contour>
			<point x="187.459" y="4.064" type="line"/>
			<point x="212.459" y="-1225.936" type="line"/>
			<point x="-187.459" y="-1234.064" type="line"/>
			<point x="-212.459" y="-4.064" type="line"/>
		</contour>
	</outline>
</glyph>
<glyph name="to-124" format="2">
	<advance width="25"/>
	<outline>
		<contour>
			<point x="189.459" y="4.072" type="line"/>
			<point x="214.459" y="-1235.928" type="line"/>
			<point x="-189.459" y="-1244.072" type="line"/>
			<point x="-214.459" y="-4.072" type="line"/>
		</contour>
	</outline>
</glyph>
<glyph name="to-125" format="2">
	<advance width="25"/>
	<outline>
		<contour>
			<point x="187.46" y="3.999" type="line"/>
			<point x="212.46" y="-1246.001" type="line"/>
			<point x="-187.46" y="-1253.999" type="line"/>
			<point x="-212.46" y="-3.999" type="line"/>
		</contour>
	</outline>
</glyph>
<glyph name="to-126" format="2">
	<advance width="25"/>
	<outline>
		<contour>
			<point x="187.461" y="3.967" type="line"/>
			<point x="212.461" y="-1256.033" type="line"/>
			<point x="-187.461" y="-1263.967" type="line"/>
			<point x="-212.461" y="-3.967" type="line"/>
		</contour>
	</outline>
</glyph>
<glyph name="to-127" format="2">
	<advance width="10"/>
	<outline>
		<contour>
			<point x="195" y="2" type="line"/>
			<point x="205" y="-1268" type="line"/>
			<point x="-195" y="-1272" type="line"/>
			<point x="-205" y="-2" type="line"/>
		</contour>
	</outline>
</glyph>
<glyph name="to-13" format="2">
	<advance width="25"/>
	<outline>
		<contour>
			<point x="56.24" y="13.219" type="line"/>
			<point x="81.24" y="-116.781" type="line"/>
			<point x="-56.24" y="-143.219" type="line"/>
			<point x="-81.24" y="-13.219" type="line"/>
		</contour>
	</outline>
</glyph>
<glyph name="to-14" format="2">
	<advance width="25"/>
	<outline>
		<contour>
			<point x="186.354" y="35.51" type="line"/>
			<point x="211.354" y="-104.49" type="line"/>
			<point x="-186.354" y="-175.51" type="line"/>
			<point x="-211.354" y="-35.51" type="line"/>
		</contour>
	</outline>
</glyph>
<glyph name="to-15" format="2">
	<advance width="25"/>
	<outline>
		<contour>
			<point x="36.82" y="8.22" type="line"/>
			<point x="61.82" y="-141.78" type="line"/>
			<point x="-36.82" y="-158.22" type="line"/>
			<point x="-61.82" y="-8.22" type="line"/>
		</contour>
	</outline>
</glyph>
<glyph name="to-16" format="2">
	<advance width="25"/>
	<outline>
		<contour>
			<point x="187.078" y="31.184" type="line"/>
			<point x="212.078" y="-128.816" type="line"/>
			<point x="-187.078" y="-191.184" type="line"/>
			<point x="-212.078" y="-31.184" type="line"/>
		</contour>
	</outline>
</glyph>
<glyph name="to-17" format="2">
	<advance width="25"/>
	<outline>
		<contour>
			<point x="187.351" y="29.39" type="line"/>
			<point x="212.351" y="-140.61" type="line"/>
			<point x="-187.351" y="-199.39" type="line"/>
			<point x="-212.351" y="-29.39" type="line"/>
		</contour>
	</outline>
</glyph>
<glyph name="to-18" format="2">
	<advance width="10"/>
	<outline>
		<contour>
			<point x="195" y="11" type="line"/>
			<point x="205" y="-169" type="line"/>
			<point x="-195" y="-191" type="line"/>
			<point x="-205" y="-11" type="line"/>
		</contour>
	</outline>
</glyph>
<glyph name="to-19" format="2">
	<advance width="25"/>
	<outline>
		<contour>
			<point x="187.774" y="26.352" type="line"/>
			<point x="212.774" y="-163.648" type="line"/>
			<point x="-187.774" y="-216.352" type="line"/>
			<point x="-212.774" y="-26.352" type="line"/>
		</contour>
	</outline>
</glyph>
<glyph name="to-2" format="2">
	<advance width="25"/>
	<outline>
		<contour>
			<point x="113.688" y="157.735" type="line"/>
			<point x="138.688" y="137.735" type="line"/>
			<point x="-113.688" y="-177.735" type="line"/>
			<point x="-138.688" y="-157.735" type="line"/>
		</contour>
	</outline>
</glyph>
<glyph name="to-20" format="2">
	<advance width="25"/>
	<outline>
		<contour>
			<point x="187.94" y="25.055" type="line"/>
			<point x="212.94" y="-174.945" type="line"/>
			<point x="-187.94" y="-225.055" type="line"/>
			<point x="-212.94" y="-25.055" type="line"/>
		</contour>
	</outline>
</glyph>
<glyph name="to-21" format="2">
	<advance width="25"/>
	<outline>
		<contour>
			<point x="188.084" y="23.879" type="line"/>
			<point x="213.084" y="-186.121" type="line"/>
			<point x="-188.084" y="-233.879" type="line"/>
			<point x="-213.084" y="-23.879" type="line"/>
		</contour>
	</outline>
</glyph>
<glyph name="to-22" format="2">
	<advance width="25"/>
	<outline>
		<contour>
			<point x="57.052" y="7.904" type="line"/>
			<point x="82.052" y="-212.096" type="line"/>
			<point x="-57.052" y="-227.904" type="line"/>
			<point x="-82.052" y="-7.904" type="line"/>
		</contour>
	</outline>
</glyph>
<glyph name="to-23" format="2">
	<advance width="25"/>
	<outline>
		<contour>
			<point x="186.329" y="21.612" type="line"/>
			<point x="211.329" y="-208.388" type="line"/>
			<point x="-186.329" y="-251.612" type="line"/>
			<point x="-211.329" y="-21.612" type="line"/>
		</contour>
	</outline>
</glyph>
<glyph name="to-24" format="2">
	<advance width="25"/>
	<outline>
		<contour>
			<point x="37.231" y="5.18" type="line"/>
			<point x="62.231" y="-234.82" type="line"/>
			<point x="-37.231" y="-245.18" type="line"/>
			<point x="-62.231" y="-5.18" type="line"/>
		</contour>
	</outline>
</glyph>
<glyph name="to-25" format="2">
	<advance width="25"/>
	<outline>
		<contour>
			<point x="57.153" y="6.965" type="line"/>
			<point x="82.153" y="-243.035" type="line"/>
			<point x="-57.153" y="-256.965" type="line"/>
			<point x="-82.153" y="-6.965" type="line"/>
		</contour>
	</outline>
</glyph>
<glyph name="to-26" format="2">
	<advance width="25"/>
	<outline>
		<contour>
			<point x="188.573" y="19.334" type="line"/>
			<point x="213.573" y="-240.666" type="line"/>
			<point x="-188.573" y="-279.334" type="line"/>
			<point x="-213.573" y="-19.334" type="line"/>
		</contour>
	</outline>
</glyph>
<glyph name="to-27" format="2">
	<advance width="10"/>
	<outline>
		<contour>
			<point x="195" y="7" type="line"/>
			<point x="205" y="-263" type="line"/>
			<point x="-195" y="-277" type="line"/>
			<point x="-205" y="-7" type="line"/>
		</contour>
	</outline>
</glyph>
<glyph name="to-28" format="2">
	<advance width="25"/>
	<outline>
		<contour>
			<point x="87.104" y="8.893" type="line"/>
			<point x="112.104" y="-271.107" type="line"/>
			<point x="-87.104" y="-288.893" type="line"/>
			<point x="-112.104" y="-8.893" type="line"/>
		</contour>
	</outline>
</glyph>
<glyph name="to-29" format="2">
	<advance width="25"/>
	<outline>
		<contour>
			<point x="87.13" y="8.589" type="line"/>
			<point x="112.13" y="-281.411" type="line"/>
			<point x="-87.13" y="-298.589" type="line"/>
			<point x="-112.13" y="-8.589" type="line"/>
		</contour>
	</outline>
</glyph>
<glyph name="to-3" format="2">
	<advance width="25"/>
	<outline>
		<contour>
			<point x="41.275" y="44.813" type="line"/>
			<point x="66.275" y="14.813" type="line"/>
			<point x="-41.275" y="-74.813" type="line"/>
			<point x="-66.275" y="-44.813" type="line"/>
		</contour>
	</outline>
</glyph>
<glyph name="to-30" format="2">
	<advance width="10"/>
	<outline>
		<contour>
			<point x="195" y="7" type="line"/>
			<point x="205" y="-293" type="line"/>
			<point x="-195" y="-307" type="line"/>
			<point x="-205" y="-7" type="line"/>
		</contour>
	</outline>
</glyph>
<glyph name="to-31" format="2">
	<advance width="25"/>
	<outline>
		<contour>
			<point x="57.273" y="5.627" type="line"/>
			<point x="82.273" y="-304.373" type="line"/>
			<point x="-57.273" y="-315.627" type="line"/>
			<point x="-82.273" y="-5.627" type="line"/>
		</contour>
	</outline>
</glyph>
<glyph name="to-32" format="2">
	<advance width="25"/>
	<outline>
		<contour>
			<point x="188.886" y="15.733" type="line"/>
			<point x="213.886" y="-304.267" type="line"/>
			<point x="-188.886" y="-335.733" type="line"/>
			<point x="-213.886" y="-15.733" type="line"/>
		</contour>
	</outline>
</glyph>
<glyph name="to-33" format="2">
	<advance width="25"/>
	<outline>
		<contour>
			<point x="188.923" y="15.259" type="line"/>
			<point x="213.923" y="-314.741" type="line"/>
			<point x="-188.923" y="-345.259" type="line"/>
			<point x="-213.923" y="-15.259" type="line"/>
		</contour>
	</outline>
</glyph>
<glyph name="to-34" format="2">
	<advance width="25"/>
	<outline>
		<contour>
			<point x="57.312" y="5.133" type="line"/>
			<point x="82.312" y="-334.867" type="line"/>
			<point x="-57.312" y="-345.133" type="line"/>
			<point x="-82.312" y="-5.133" type="line"/>
		</contour>
	</outline>
</glyph>
<glyph name="to-35" format="2">
	<advance width="25"/>
	<outline>
		<contour>
			<point x="188.987" y="14.392" type="line"/>
			<point x="213.987" y="-335.608" type="line"/>
			<point x="-188.987" y="-364.392" type="line"/>
			<point x="-213.987" y="-14.392" type="line"/>
		</contour>
	</outline>
</glyph>
<glyph name="to-36" format="2">
	<advance width="25"/>
	<outline>
		<contour>
			<point x="57.332" y="4.849" type="line"/>
			<point x="82.332" y="-355.151" type="line"/>
			<point x="-57.332" y="-364.849" type="line"/>
			<point x="-82.332" y="-4.849" type="line"/>
		</contour>
	</outline>
</glyph>
<glyph name="to-37" format="2">
	<advance width="25"/>
	<outline>
		<contour>
			<point x="187.045" y="13.483" type="line"/>
			<point x="212.045" y="-356.517" type="line"/>
			<point x="-187.045" y="-383.483" type="line"/>
			<point x="-212.045" y="-13.483" type="line"/>
		</contour>
	</outline>
</glyph>
<glyph name="to-38" format="2">
	<advance width="25"/>
	<outline>
		<contour>
			<point x="57.349" y="4.595" type="line"/>
			<point x="82.349" y="-375.405" type="line"/>
			<point x="-57.349" y="-384.595" type="line"/>
			<point x="-82.349" y="-4.595" type="line"/>
		</contour>
	</outline>
</glyph>
<glyph name="to-39" format="2">
	<advance width="25"/>
	<outline>
		<contour>
			<point x="37.398" y="3.199" type="line"/>
			<point x="62.398" y="-386.801" type="line"/>
			<point x="-37.398" y="-393.199" type="line"/>
			<point x="-62.398" y="-3.199" type="line"/>
		</contour>
	</outline>
</glyph>
<glyph name="to-4" format="2">
	<advance width="10"/>
	<outline>
		<contour>
			<point x="189" y="49" type="line"/>
			<point x="199" y="9" type="line"/>
			<point x="-189" y="-89" type="line"/>
			<point x="-199" y="-49" type="line"/>
		</contour>
	</outline>
</glyph>
<glyph name="to-41" format="2">
	<advance width="25"/>
	<outline>
		<contour>
			<point x="57.37" y="4.26" type="line"/>
			<point x="82.37" y="-405.74" type="line"/>
			<point x="-57.37" y="-414.26" type="line"/>
			<point x="-82.37" y="-4.26" type="line"/>
		</contour>
	</outline>
</glyph>
<glyph name="to-42" format="2">
	<advance width="25"/>
	<outline>
		<contour>
			<point x="189.143" y="12.003" type="line"/>
			<point x="214.143" y="-407.997" type="line"/>
			<point x="-189.143" y="-432.003" type="line"/>
			<point x="-214.143" y="-12.003" type="line"/>
		</contour>
	</outline>
</glyph>
<glyph name="to-43" format="2">
	<advance width="25"/>
	<outline>
		<contour>
			<point x="187.163" y="11.608" type="line"/>
			<point x="212.163" y="-418.392" type="line"/>
			<point x="-187.163" y="-441.608" type="line"/>
			<point x="-212.163" y="-11.608" type="line"/>
		</contour>
	</outline>
</glyph>
<glyph name="to-44" format="2">
	<advance width="10"/>
	<outline>
		<contour>
			<point x="195" y="5" type="line"/>
			<point x="205" y="-435" type="line"/>
			<point x="-195" y="-445" type="line"/>
			<point x="-205" y="-5" type="line"/>
		</contour>
	</outline>
</glyph>
<glyph name="to-45" format="2">
	<advance width="25"/>
	<outline>
		<contour>
			<point x="37.423" y="2.774" type="line"/>
			<point x="62.423" y="-447.226" type="line"/>
			<point x="-37.423" y="-452.774" type="line"/>
			<point x="-62.423" y="-2.774" type="line"/>
		</contour>
	</outline>
</glyph>
<glyph name="to-46" format="2">
	<advance width="25"/>
	<outline>
		<contour>
			<point x="189.202" y="10.962" type="line"/>
			<point x="214.202" y="-449.038" type="line"/>
			<point x="-189.202" y="-470.962" type="line"/>
			<point x="-214.202" y="-10.962" type="line"/>
		</contour>
	</outline>
</glyph>
<glyph name="to-47" format="2">
	<advance width="10"/>
	<outline>
		<contour>
			<point x="195" y="4" type="line"/>
			<point x="205" y="-466" type="line"/>
			<point x="-195" y="-474" type="line"/>
			<point x="-205" y="-4" type="line"/>
		</contour>
	</outline>
</glyph>
<glyph name="to-48" format="2">
	<advance width="25"/>
	<outline>
		<contour>
			<point x="189.227" y="10.507" type="line"/>
			<point x="214.227" y="-469.493" type="line"/>
			<point x="-189.227" y="-490.507" type="line"/>
			<point x="-214.227" y="-10.507" type="line"/>
		</contour>
	</outline>
</glyph>
<glyph name="to-49" format="2">
	<advance width="25"/>
	<outline>
		<contour>
			<point x="37.435" y="2.548" type="line"/>
			<point x="62.435" y="-487.452" type="line"/>
			<point x="-37.435" y="-492.548" type="line"/>
			<point x="-62.435" y="-2.548" type="line"/>
		</contour>
	</outline>
</glyph>
<glyph name="to-5" format="2">
	<advance width="25"/>
	<outline>
		<contour>
			<point x="32.221" y="22.361" type="line"/>
			<point x="57.221" y="-27.639" type="line"/>
			<point x="-32.221" y="-72.361" type="line"/>
			<point x="-57.221" y="-22.361" type="line"/>
		</contour>
	</outline>
</glyph>
<glyph name="to-50" format="2">
	<advance width="25"/>
	<outline>
		<contour>
			<point x="57.413" y="3.496" type="line"/>
			<point x="82.413" y="-496.504" type="line"/>
			<point x="-57.413" y="-503.496" type="line"/>
			<point x="-82.413" y="-3.496" type="line"/>
		</contour>
	</outline>
</glyph>
<glyph name="to-51" format="2">
	<advance width="25"/>
	<outline>
		<contour>
			<point x="189.258" y="9.89" type="line"/>
			<point x="214.258" y="-500.11" type="line"/>
			<point x="-189.258" y="-519.89" type="line"/>
			<point x="-214.258" y="-9.89" type="line"/>
		</contour>
	</outline>
</glyph>
<glyph name="to-52" format="2">
	<advance width="25"/>
	<outline>
		<contour>
			<point x="57.419" y="3.362" type="line"/>
			<point x="82.419" y="-516.638" type="line"/>
			<point x="-57.419" y="-523.362" type="line"/>
			<point x="-82.419" y="-3.362" type="line"/>
		</contour>
	</outline>
</glyph>
<glyph name="to-53" format="2">
	<advance width="25"/>
	<outline>
		<contour>
			<point x="189.276" y="9.518" type="line"/>
			<point x="214.276" y="-520.482" type="line"/>
			<point x="-189.276" y="-539.518" type="line"/>
			<point x="-214.276" y="-9.518" type="line"/>
		</contour>
	</outline>
</glyph>
<glyph name="to-54" format="2">
	<advance width="10"/>
	<outline>
		<contour>
			<point x="195" y="4" type="line"/>
			<point x="205" y="-536" type="line"/>
			<point x="-195" y="-544" type="line"/>
			<point x="-205" y="-4" type="line"/>
		</contour>
	</outline>
</glyph>
<glyph name="to-55" format="2">
	<advance width="25"/>
	<outline>
		<contour>
			<point x="189.292" y="9.172" type="line"/>
			<point x="214.292" y="-540.828" type="line"/>
			<point x="-189.292" y="-559.172" type="line"/>
			<point x="-214.292" y="-9.172" type="line"/>
		</contour>
	</outline>
</glyph>
<glyph name="to-56" format="2">
	<advance width="25"/>
	<outline>
		<contour>
			<point x="189.299" y="9.009" type="line"/>
			<point x="214.299" y="-550.991" type="line"/>
			<point x="-189.299" y="-569.009" type="line"/>
			<point x="-214.299" y="-9.009" type="line"/>
		</contour>
	</outline>
</glyph>
<glyph name="to-57" format="2">
	<advance width="25"/>
	<outline>
		<contour>
			<point x="189.306" y="8.851" type="line"/>
			<point x="214.306" y="-561.149" type="line"/>
			<point x="-189.306" y="-578.851" type="line"/>
			<point x="-214.306" y="-8.851" type="line"/>
		</contour>
	</outline>
</glyph>
<glyph name="to-58" format="2">
	<advance width="25"/>
	<outline>
		<contour>
			<point x="57.435" y="3.014" type="line"/>
			<point x="82.435" y="-576.986" type="line"/>
			<point x="-57.435" y="-583.014" type="line"/>
			<point x="-82.435" y="-3.014" type="line"/>
		</contour>
	</outline>
</glyph>
<glyph name="to-59" format="2">
	<advance width="25"/>
	<outline>
		<contour>
			<point x="57.437" y="2.963" type="line"/>
			<point x="82.437" y="-587.037" type="line"/>
			<point x="-57.437" y="-592.963" type="line"/>
			<point x="-82.437" y="-2.963" type="line"/>
		</contour>
	</outline>
</glyph>
<glyph name="to-6" format="2">
	<advance width="10"/>
	<outline>
		<contour>
			<point x="192" y="33" type="line"/>
			<point x="202" y="-27" type="line"/>
			<point x="-192" y="-93" type="line"/>
			<point x="-202" y="-33" type="line"/>
		</contour>
	</outline>
</glyph>
<glyph name="to-60" format="2">
	<advance width="25"/>
	<outline>
		<contour>
			<point x="189.325" y="8.409" type="line"/>
			<point x="214.325" y="-591.591" type="line"/>
			<point x="-189.325" y="-608.409" type="line"/>
			<point x="-214.325" y="-8.409" type="line"/>
		</contour>
	</outline>
</glyph>
<glyph name="to-61" format="2">
	<advance width="25"/>
	<outline>
		<contour>
			<point x="57.441" y="2.866" type="line"/>
			<point x="82.441" y="-607.134" type="line"/>
			<point x="-57.441" y="-612.866" type="line"/>
			<point x="-82.441" y="-2.866" type="line"/>
		</contour>
	</outline>
</glyph>
<glyph name="to-62" format="2">
	<advance width="25"/>
	<outline>
		<contour>
			<point x="87.419" y="4.029" type="line"/>
			<point x="112.419" y="-615.971" type="line"/>
			<point x="-87.419" y="-624.029" type="line"/>
			<point x="-112.419" y="-4.029" type="line"/>
		</contour>
	</outline>
</glyph>
<glyph name="to-63" format="2">
	<advance width="25"/>
	<outline>
		<contour>
			<point x="189.341" y="8.01" type="line"/>
			<point x="214.341" y="-621.99" type="line"/>
			<point x="-189.341" y="-638.01" type="line"/>
			<point x="-214.341" y="-8.01" type="line"/>
		</contour>
	</outline>
</glyph>
<glyph name="to-64" format="2">
	<advance width="10"/>
	<outline>
		<contour>
			<point x="195" y="3" type="line"/>
			<point x="205" y="-637" type="line"/>
			<point x="-195" y="-643" type="line"/>
			<point x="-205" y="-3" type="line"/>
		</contour>
	</outline>
</glyph>
<glyph name="to-65" format="2">
	<advance width="25"/>
	<outline>
		<contour>
			<point x="189.351" y="7.763" type="line"/>
			<point x="214.351" y="-642.237" type="line"/>
			<point x="-189.351" y="-657.763" type="line"/>
			<point x="-214.351" y="-7.763" type="line"/>
		</contour>
	</outline>
</glyph>
<glyph name="to-66" format="2">
	<advance width="25"/>
	<outline>
		<contour>
			<point x="87.428" y="3.785" type="line"/>
			<point x="112.428" y="-656.215" type="line"/>
			<point x="-87.428" y="-663.785" type="line"/>
			<point x="-112.428" y="-3.785" type="line"/>
		</contour>
	</outline>
</glyph>
<glyph name="to-67" format="2">
	<advance width="25"/>
	<outline>
		<contour>
			<point x="189.36" y="7.532" type="line"/>
			<point x="214.36" y="-662.468" type="line"/>
			<point x="-189.36" y="-677.532" type="line"/>
			<point x="-214.36" y="-7.532" type="line"/>
		</contour>
	</outline>
</glyph>
<glyph name="to-68" format="2">
	<advance width="25"/>
	<outline>
		<contour>
			<point x="187.365" y="7.348" type="line"/>
			<point x="212.365" y="-672.652" type="line"/>
			<point x="-187.365" y="-687.348" type="line"/>
			<point x="-212.365" y="-7.348" type="line"/>
		</contour>
	</outline>
</glyph>
<glyph name="to-69" format="2">
	<advance width="25"/>
	<outline>
		<contour>
			<point x="57.454" y="2.535" type="line"/>
			<point x="82.454" y="-687.465" type="line"/>
			<point x="-57.454" y="-692.535" type="line"/>
			<point x="-82.454" y="-2.535" type="line"/>
		</contour>
	</outline>
</glyph>
<glyph name="to-7" format="2">
	<advance width="25"/>
	<outline>
		<contour>
			<point x="34.587" y="16.817" type="line"/>
			<point x="59.587" y="-53.183" type="line"/>
			<point x="-34.587" y="-86.817" type="line"/>
			<point x="-59.587" y="-16.817" type="line"/>
		</contour>
	</outline>
</glyph>
<glyph name="to-70" format="2">
	<advance width="25"/>
	<outline>
		<contour>
			<point x="189.371" y="7.21" type="line"/>
			<point x="214.371" y="-692.79" type="line"/>
			<point x="-189.371" y="-707.21" type="line"/>
			<point x="-214.371" y="-7.21" type="line"/>
		</contour>
	</outline>
</glyph>
<glyph name="to-71" format="2">
	<advance width="25"/>
	<outline>
		<contour>
			<point x="37.469" y="1.759" type="line"/>
			<point x="62.469" y="-708.241" type="line"/>
			<point x="-37.469" y="-711.759" type="line"/>
			<point x="-62.469" y="-1.759" type="line"/>
		</contour>
	</outline>
</glyph>
<glyph name="to-72" format="2">
	<advance width="25"/>
	<outline>
		<contour>
			<point x="187.38" y="6.94" type="line"/>
			<point x="212.38" y="-713.06" type="line"/>
			<point x="-187.38" y="-726.94" type="line"/>
			<point x="-212.38" y="-6.94" type="line"/>
		</contour>
	</outline>
</glyph>
<glyph name="to-73" format="2">
	<advance width="10"/>
	<outline>
		<contour>
			<point x="195" y="3" type="line"/>
			<point x="205" y="-727" type="line"/>
			<point x="-195" y="-733" type="line"/>
			<point x="-205" y="-3" type="line"/>
		</contour>
	</outline>
</glyph>
<glyph name="to-74" format="2">
	<advance width="25"/>
	<outline>
		<contour>
			<point x="189.385" y="6.82" type="line"/>
			<point x="214.385" y="-733.18" type="line"/>
			<point x="-189.385" y="-746.82" type="line"/>
			<point x="-214.385" y="-6.82" type="line"/>
		</contour>
	</outline>
</glyph>
<glyph name="to-75" format="2">
	<advance width="25"/>
	<outline>
		<contour>
			<point x="187.389" y="6.663" type="line"/>
			<point x="212.389" y="-743.337" type="line"/>
			<point x="-187.389" y="-756.663" type="line"/>
			<point x="-212.389" y="-6.663" type="line"/>
		</contour>
	</outline>
</glyph>
<glyph name="to-77" format="2">
	<advance width="25"/>
	<outline>
		<contour>
			<point x="189.394" y="6.555" type="line"/>
			<point x="214.394" y="-763.445" type="line"/>
			<point x="-189.394" y="-776.555" type="line"/>
			<point x="-214.394" y="-6.555" type="line"/>
		</contour>
	</outline>
</glyph>
<glyph name="to-78" format="2">
	<advance width="25"/>
	<outline>
		<contour>
			<point x="189.396" y="6.471" type="line"/>
			<point x="214.396" y="-773.529" type="line"/>
			<point x="-189.396" y="-786.471" type="line"/>
			<point x="-214.396" y="-6.471" type="line"/>
		</contour>
	</outline>
</glyph>
<glyph name="to-79" format="2">
	<advance width="25"/>
	<outline>
		<contour>
			<point x="57.465" y="2.214" type="line"/>
			<point x="82.465" y="-787.786" type="line"/>
			<point x="-57.465" y="-792.214" type="line"/>
			<point x="-82.465" y="-2.214" type="line"/>
		</contour>
	</outline>
</glyph>
<glyph name="to-8" format="2">
	<advance width="25"/>
	<outline>
		<contour>
			<point x="35.224" y="14.914" type="line"/>
			<point x="60.224" y="-65.086" type="line"/>
			<point x="-35.224" y="-94.914" type="line"/>
			<point x="-60.224" y="-14.914" type="line"/>
		</contour>
	</outline>
</glyph>
<glyph name="to-80" format="2">
	<advance width="25"/>
	<outline>
		<contour>
			<point x="187.402" y="6.247" type="line"/>
			<point x="212.402" y="-793.753" type="line"/>
			<point x="-187.402" y="-806.247" type="line"/>
			<point x="-212.402" y="-6.247" type="line"/>
		</contour>
	</outline>
</glyph>
<glyph name="to-81" format="2">
	<advance width="25"/>
	<outline>
		<contour>
			<point x="189.404" y="6.232" type="line"/>
			<point x="214.404" y="-803.768" type="line"/>
			<point x="-189.404" y="-816.232" type="line"/>
			<point x="-214.404" y="-6.232" type="line"/>
		</contour>
	</outline>
</glyph>
<glyph name="to-82" format="2">
	<advance width="25"/>
	<outline>
		<contour>
			<point x="57.467" y="2.133" type="line"/>
			<point x="82.467" y="-817.867" type="line"/>
			<point x="-57.467" y="-822.133" type="line"/>
			<point x="-82.467" y="-2.133" type="line"/>
		</contour>
	</outline>
</glyph>
<glyph name="to-83" format="2">
	<advance width="25"/>
	<outline>
		<contour>
			<point x="189.408" y="6.082" type="line"/>
			<point x="214.408" y="-823.918" type="line"/>
			<point x="-189.408" y="-836.082" type="line"/>
			<point x="-214.408" y="-6.082" type="line"/>
		</contour>
	</outline>
</glyph>
<glyph name="to-84" format="2">
	<advance width="25"/>
	<outline>
		<contour>
			<point x="37.478" y="1.487" type="line"/>
			<point x="62.478" y="-838.513" type="line"/>
			<point x="-37.478" y="-841.487" type="line"/>
			<point x="-62.478" y="-1.487" type="line"/>
		</contour>
	</outline>
</glyph>
<glyph name="to-85" format="2">
	<advance width="25"/>
	<outline>
		<contour>
			<point x="37.478" y="1.47" type="line"/>
			<point x="62.478" y="-848.53" type="line"/>
			<point x="-37.478" y="-851.47" type="line"/>
			<point x="-62.478" y="-1.47" type="line"/>
		</contour>
	</outline>
</glyph>
<glyph name="to-86" format="2">
	<advance width="25"/>
	<outline>
		<contour>
			<point x="187.416" y="5.811" type="line"/>
			<point x="212.416" y="-854.189" type="line"/>
			<point x="-187.416" y="-865.811" type="line"/>
			<point x="-212.416" y="-5.811" type="line"/>
		</contour>
	</outline>
</glyph>
<glyph name="to-87" format="2">
	<advance width="10"/>
	<outline>
		<contour>
			<point x="195" y="2" type="line"/>
			<point x="205" y="-868" type="line"/>
			<point x="-195" y="-872" type="line"/>
			<point x="-205" y="-2" type="line"/>
		</contour>
	</outline>
</glyph>
<glyph name="to-89" format="2">
	<advance width="25"/>
	<outline>
		<contour>
			<point x="57.472" y="1.966" type="line"/>
			<point x="82.472" y="-888.034" type="line"/>
			<point x="-57.472" y="-891.966" type="line"/>
			<point x="-82.472" y="-1.966" type="line"/>
		</contour>
	</outline>
</glyph>
<glyph name="to-9" format="2">
	<advance width="25"/>
	<outline>
		<contour>
			<point x="54.946" y="18.735" type="line"/>
			<point x="79.946" y="-71.265" type="line"/>
			<point x="-54.946" y="-108.735" type="line"/>
			<point x="-79.946" y="-18.735" type="line"/>
		</contour>
	</outline>
</glyph>
<glyph name="to-90" format="2">
	<advance width="25"/>
	<outline>
		<contour>
			<point x="57.473" y="1.944" type="line"/>
			<point x="82.473" y="-898.056" type="line"/>
			<point x="-57.473" y="-901.944" type="line"/>
			<point x="-82.473" y="-1.944" type="line"/>
		</contour>
	</outline>
</glyph>
<glyph name="to-92" format="2">
	<advance width="25"/>
	<outline>
		<contour>
			<point x="57.474" y="1.901" type="line"/>
			<point x="82.474" y="-918.099" type="line"/>
			<point x="-57.474" y="-921.901" type="line"/>
			<point x="-82.474" y="-1.901" type="line"/>
		</contour>
	</outline>
</glyph>
<glyph name="to-93" format="2">
	<advance width="25"/>
	<outline>
		<contour>
			<point x="189.427" y="5.428" type="line"/>
			<point x="214.427" y="-924.572" type="line"/>
			<point x="-189.427" y="-935.428" type="line"/>
			<point x="-214.427" y="-5.428" type="line"/>
		</contour>
	</outline>
</glyph>
<glyph name="to-94" format="2">
	<advance width="25"/>
	<outline>
		<contour>
			<point x="37.482" y="1.329" type="line"/>
			<point x="62.482" y="-938.671" type="line"/>
			<point x="-37.482" y="-941.329" type="line"/>
			<point x="-62.482" y="-1.329" type="line"/>
		</contour>
	</outline>
</glyph>
<glyph name="to-95" format="2">
	<advance width="25"/>
	<outline>
		<contour>
			<point x="187.431" y="5.261" type="line"/>
			<point x="212.431" y="-944.739" type="line"/>
			<point x="-187.431" y="-955.261" type="line"/>
			<point x="-212.431" y="-5.261" type="line"/>
		</contour>
	</outline>
</glyph>
<glyph name="to-96" format="2">
	<advance width="25"/>
	<outline>
		<contour>
			<point x="189.432" y="5.259" type="line"/>
			<point x="214.432" y="-954.741" type="line"/>
			<point x="-189.432" y="-965.259" type="line"/>
			<point x="-214.432" y="-5.259" type="line"/>
		</contour>
	</outline>
</glyph>
<glyph name="to-97" format="2">
	<advance width="25"/>
	<outline>
		<contour>
			<point x="87.467" y="2.576" type="line"/>
			<point x="112.467" y="-967.424" type="line"/>
			<point x="-87.467" y="-972.576" type="line"/>
			<point x="-112.467" y="-2.576" type="line"/>
		</contour>
	</outline>
</glyph>
<glyph name="to-98" format="2">
	<advance width="25"/>
	<outline>
		<contour>
			<point x="187.435" y="5.1" type="line"/>
			<point x="212.435" y="-974.9" type="line"/>
			<point x="-187.435" y="-985.1" type="line"/>
			<point x="-212.435" y="-5.1" type="line"/>
		</contour>
	</outline>
</glyph>
<glyph name="to-99" format="2">
	<advance width="25"/>
	<outline>
		<contour>
			<point x="57.478" y="1.767" type="line"/>
			<point x="82.478" y="-988.233" type="line"/>
			<point x="-57.478" y="-991.767" type="line"/>
			<point x="-82.478" y="-1.767" type="line"/>
		</contour>
	</outline>
</glyph>
<glyph name="to0" format="2">
	<advance width="25"/>
	<outline>
		<contour>
			<point x="-12.5" y="202" type="line"/>
			<point x="12.5" y="202" type="line"/>
			<point x="12.5" y="-202" type="line"/>
			<point x="-12.5" y="-202" type="line"/>
		</contour>
	</outline>
</glyph>
<glyph name="to1" format="2">
	<advance width="25"/>
	<outline>
		<contour>
			<point x="-87.521" y="187.552" type="line"/>
			<point x="-62.521" y="197.552" type="line"/>
			<point x="87.521" y="-177.552" type="line"/>
			<point x="62.521" y="-187.552" type="line"/>
		</contour>
	</outline>
</glyph>
<glyph name="to10" format="2">
	<advance width="25"/>
	<outline>
		<contour>
			<point x="-80.41" y="16.977" type="line"/>
			<point x="-55.41" y="116.977" type="line"/>
			<point x="80.41" y="83.023" type="line"/>
			<point x="55.41" y="-16.977" type="line"/>
		</contour>
	</outline>
</glyph>
<glyph name="to100" format="2">
	<advance width="25"/>
	<outline>
		<contour>
			<point x="-82.478" y="1.749" type="line"/>
			<point x="-57.478" y="1001.749" type="line"/>
			<point x="82.478" y="998.251" type="line"/>
			<point x="57.478" y="-1.749" type="line"/>
		</contour>
	</outline>
</glyph>
<glyph name="to101" format="2">
	<advance width="25"/>
	<outline>
		<contour>
			<point x="-62.485" y="1.237" type="line"/>
			<point x="-37.485" y="1011.237" type="line"/>
			<point x="62.485" y="1008.763" type="line"/>
			<point x="37.485" y="-1.237" type="line"/>
		</contour>
	</outline>
</glyph>
<glyph name="to102" format="2">
	<advance width="25"/>
	<outline>
		<contour>
			<point x="-212.44" y="4.9" type="line"/>
			<point x="-187.44" y="1024.9" type="line"/>
			<point x="212.44" y="1015.1" type="line"/>
			<point x="187.44" y="-4.9" type="line"/>
		</contour>
	</outline>
</glyph>
<glyph name="to103" format="2">
	<advance width="25"/>
	<outline>
		<contour>
			<point x="-82.479" y="1.699" type="line"/>
			<point x="-57.479" y="1031.699" type="line"/>
			<point x="82.479" y="1028.301" type="line"/>
			<point x="57.479" y="-1.699" type="line"/>
		</contour>
	</outline>
</glyph>
<glyph name="to104" format="2">
	<advance width="25"/>
	<outline>
		<contour>
			<point x="-82.48" y="1.682" type="line"/>
			<point x="-57.48" y="1041.682" type="line"/>
			<point x="82.48" y="1038.318" type="line"/>
			<point x="57.48" y="-1.682" type="line"/>
		</contour>
	</outline>
</glyph>
<glyph name="to105" format="2">
	<advance width="25"/>
	<outline>
		<contour>
			<point x="-62.486" y="1.19" type="line"/>
			<point x="-37.486" y="1051.19" type="line"/>
			<point x="62.486" y="1048.81" type="line"/>
			<point x="37.486" y="-1.19" type="line"/>
		</contour>
	</outline>
</glyph>
<glyph name="to106" format="2">
	<advance width="25"/>
	<outline>
		<contour>
			<point x="-214.444" y="4.763" type="line"/>
			<point x="-189.444" y="1064.763" type="line"/>
			<point x="214.444" y="1055.237" type="line"/>
			<point x="189.444" y="-4.763" type="line"/>
		</contour>
	</outline>
</glyph>
<glyph name="to107" format="2">
	<advance width="25"/>
	<outline>
		<contour>
			<point x="-82.481" y="1.635" type="line"/>
			<point x="-57.481" y="1071.635" type="line"/>
			<point x="82.481" y="1068.365" type="line"/>
			<point x="57.481" y="-1.635" type="line"/>
		</contour>
	</outline>
</glyph>
<glyph name="to108" format="2">
	<advance width="25"/>
	<outline>
		<contour>
			<point x="-214.446" y="4.675" type="line"/>
			<point x="-189.446" y="1084.675" type="line"/>
			<point x="214.446" y="1075.325" type="line"/>
			<point x="189.446" y="-4.675" type="line"/>
		</contour>
	</outline>
</glyph>
<glyph name="to109" format="2">
	<advance width="25"/>
	<outline>
		<contour>
			<point x="-212.447" y="4.586" type="line"/>
			<point x="-187.447" y="1094.586" type="line"/>
			<point x="212.447" y="1085.414" type="line"/>
			<point x="187.447" y="-4.586" type="line"/>
		</contour>
	</outline>
</glyph>
<glyph name="to11" format="2">
	<advance width="10"/>
	<outline>
		<contour>
			<point x="-204" y="18" type="line"/>
			<point x="-194" y="128" type="line"/>
			<point x="204" y="92" type="line"/>
			<point x="194" y="-18" type="line"/>
		</contour>
	</outline>
</glyph>
<glyph name="to110" format="2">
	<advance width="25"/>
	<outline>
		<contour>
			<point x="-62.487" y="1.136" type="line"/>
			<point x="-37.487" y="1101.136" type="line"/>
			<point x="62.487" y="1098.864" type="line"/>
			<point x="37.487" y="-1.136" type="line"/>
		</contour>
	</outline>
</glyph>
<glyph name="to111" format="2">
	<advance width="10"/>
	<outline>
		<contour>
			<point x="-205" y="2" type="line"/>
			<point x="-195" y="1112" type="line"/>
			<point x="205" y="1108" type="line"/>
			<point x="195" y="-2" type="line"/>
		</contour>
	</outline>
</glyph>
<glyph name="to112" format="2">
	<advance width="25"/>
	<outline>
		<contour>
			<point x="-62.488" y="1.116" type="line"/>
			<point x="-37.488" y="1121.116" type="line"/>
			<point x="62.488" y="1118.884" type="line"/>
			<point x="37.488" y="-1.116" type="line"/>
		</contour>
	</outline>
</glyph>
<glyph name="to113" format="2">
	<advance width="25"/>
	<outline>
		<contour>
			<point x="-212.451" y="4.424" type="line"/>
			<point x="-187.451" y="1134.424" type="line"/>
			<point x="212.451" y="1125.576" type="line"/>
			<point x="187.451" y="-4.424" type="line"/>
		</contour>
	</outline>
</glyph>
<glyph name="to114" format="2">
	<advance width="25"/>
	<outline>
		<contour>
			<point x="-62.488" y="1.096" type="line"/>
			<point x="-37.488" y="1141.096" type="line"/>
			<point x="62.488" y="1138.904" type="line"/>
			<point x="37.488" y="-1.096" type="line"/>
		</contour>
	</outline>
</glyph>
<glyph name="to115" format="2">
	<advance width="25"/>
	<outline>
		<contour>
			<point x="-62.488" y="1.087" type="line"/>
			<point x="-37.488" y="1151.087" type="line"/>
			<point x="62.488" y="1148.913" type="line"/>
			<point x="37.488" y="-1.087" type="line"/>
		</contour>
	</outline>
</glyph>
<glyph name="to116" format="2">
	<advance width="25"/>
	<outline>
		<contour>
			<point x="-62.488" y="1.077" type="line"/>
			<point x="-37.488" y="1161.077" type="line"/>
			<point x="62.488" y="1158.923" type="line"/>
			<point x="37.488" y="-1.077" type="line"/>
		</contour>
	</outline>
</glyph>
<glyph name="to117" format="2">
	<advance width="25"/>
	<outline>
		<contour>
			<point x="-62.489" y="1.068" type="line"/>
			<point x="-37.489" y="1171.068" type="line"/>
			<point x="62.489" y="1168.932" type="line"/>
			<point x="37.489" y="-1.068" type="line"/>
		</contour>
	</outline>
</glyph>
<glyph name="to119" format="2">
	<advance width="25"/>
	<outline>
		<contour>
			<point x="-112.478" y="2.1" type="line"/>
			<point x="-87.478" y="1192.1" type="line"/>
			<point x="112.478" y="1187.9" type="line"/>
			<point x="87.478" y="-2.1" type="line"/>
		</contour>
	</outline>
</glyph>
<glyph name="to12" format="2">
	<advance width="10"/>
	<outline>
		<contour>
			<point x="-204" y="17" type="line"/>
			<point x="-194" y="137" type="line"/>
			<point x="204" y="103" type="line"/>
			<point x="194" y="-17" type="line"/>
		</contour>
	</outline>
</glyph>
<glyph name="to120" format="2">
	<advance width="25"/>
	<outline>
		<contour>
			<point x="-214.456" y="4.207" type="line"/>
			<point x="-189.456" y="1204.207" type="line"/>
			<point x="214.456" y="1195.793" type="line"/>
			<point x="189.456" y="-4.207" type="line"/>
		</contour>
	</outline>
</glyph>
<glyph name="to121" format="2">
	<advance width="25"/>
	<outline>
		<contour>
			<point x="-214.457" y="4.173" type="line"/>
			<point x="-189.457" y="1214.173" type="line"/>
			<point x="214.457" y="1205.827" type="line"/>
			<point x="189.457" y="-4.173" type="line"/>
		</contour>
	</outline>
</glyph>
<glyph name="to122" format="2">
	<advance width="25"/>
	<outline>
		<contour>
			<point x="-112.479" y="2.049" type="line"/>
			<point x="-87.479" y="1222.049" type="line"/>
			<point x="112.479" y="1217.951" type="line"/>
			<point x="87.479" y="-2.049" type="line"/>
		</contour>
	</outline>
</glyph>
<glyph name="to123" format="2">
	<advance width="10"/>
	<outline>
		<contour>
			<point x="-205" y="2" type="line"/>
			<point x="-195" y="1232" type="line"/>
			<point x="205" y="1228" type="line"/>
			<point x="195" y="-2" type="line"/>
		</contour>
	</outline>
</glyph>
<glyph name="to124" format="2">
	<advance width="25"/>
	<outline>
		<contour>
			<point x="-82.486" y="1.411" type="line"/>
			<point x="-57.486" y="1241.411" type="line"/>
			<point x="82.486" y="1238.589" type="line"/>
			<point x="57.486" y="-1.411" type="line"/>
		</contour>
	</outline>
</glyph>
<glyph name="to125" format="2">
	<advance width="25"/>
	<outline>
		<contour>
			<point x="-82.486" y="1.4" type="line"/>
			<point x="-57.486" y="1251.4" type="line"/>
			<point x="82.486" y="1248.6" type="line"/>
			<point x="57.486" y="-1.4" type="line"/>
		</contour>
	</outline>
</glyph>
<glyph name="to126" format="2">
	<advance width="25"/>
	<outline>
		<contour>
			<point x="-214.46" y="4.007" type="line"/>
			<point x="-189.46" y="1264.007" type="line"/>
			<point x="214.46" y="1255.993" type="line"/>
			<point x="189.46" y="-4.007" type="line"/>
		</contour>
	</outline>
</glyph>
<glyph name="to127" format="2">
	<advance width="25"/>
	<outline>
		<contour>
			<point x="-214.461" y="3.976" type="line"/>
			<point x="-189.461" y="1273.976" type="line"/>
			<point x="214.461" y="1266.024" type="line"/>
			<point x="189.461" y="-3.976" type="line"/>
		</contour>
	</outline>
</glyph>
<glyph name="to13" format="2">
	<advance width="10"/>
	<outline>
		<contour>
			<point x="-204" y="15" type="line"/>
			<point x="-194" y="145" type="line"/>
			<point x="204" y="115" type="line"/>
			<point x="194" y="-15" type="line"/>
		</contour>
	</outline>
</glyph>
<glyph name="to14" format="2">
	<advance width="25"/>
	<outline>
		<contour>
			<point x="-61.721" y="8.79" type="line"/>
			<point x="-36.721" y="148.79" type="line"/>
			<point x="61.721" y="131.21" type="line"/>
			<point x="36.721" y="-8.79" type="line"/>
		</contour>
	</outline>
</glyph>
<glyph name="to15" format="2">
	<advance width="25"/>
	<outline>
		<contour>
			<point x="-81.548" y="11.508" type="line"/>
			<point x="-56.548" y="161.508" type="line"/>
			<point x="81.548" y="138.492" type="line"/>
			<point x="56.548" y="-11.508" type="line"/>
		</contour>
	</outline>
</glyph>
<glyph name="to16" format="2">
	<advance width="25"/>
	<outline>
		<contour>
			<point x="-210.102" y="30.875" type="line"/>
			<point x="-185.102" y="190.875" type="line"/>
			<point x="210.102" y="129.125" type="line"/>
			<point x="185.102" y="-30.875" type="line"/>
		</contour>
	</outline>
</glyph>
<glyph name="to17" format="2">
	<advance width="25"/>
	<outline>
		<contour>
			<point x="-61.968" y="7.275" type="line"/>
			<point x="-36.968" y="177.275" type="line"/>
			<point x="61.968" y="162.725" type="line"/>
			<point x="36.968" y="-7.275" type="line"/>
		</contour>
	</outline>
</glyph>
<glyph name="to18" format="2">
	<advance width="10"/>
	<outline>
		<contour>
			<point x="-205" y="11" type="line"/>
			<point x="-195" y="191" type="line"/>
			<point x="205" y="169" type="line"/>
			<point x="195" y="-11" type="line"/>
		</contour>
	</outline>
</glyph>
<glyph name="to19" format="2">
	<advance width="10"/>
	<outline>
		<contour>
			<point x="-205" y="11" type="line"/>
			<point x="-195" y="201" type="line"/>
			<point x="205" y="179" type="line"/>
			<point x="195" y="-11" type="line"/>
		</contour>
	</outline>
</glyph>
<glyph name="to2" format="2">
	<advance width="25"/>
	<outline>
		<contour>
			<point x="-43.735" y="39.043" type="line"/>
			<point x="-18.735" y="59.043" type="line"/>
			<point x="43.735" y="-19.043" type="line"/>
			<point x="18.735" y="-39.043" type="line"/>
		</contour>
	</outline>
</glyph>
<glyph name="to20" format="2">
	<advance width="10"/>
	<outline>
		<contour>
			<point x="-205" y="10" type="line"/>
			<point x="-195" y="210" type="line"/>
			<point x="205" y="190" type="line"/>
			<point x="195" y="-10" type="line"/>
		</contour>
	</outline>
</glyph>
<glyph name="to21" format="2">
	<advance width="25"/>
	<outline>
		<contour>
			<point x="-82.009" y="8.275" type="line"/>
			<point x="-57.009" y="218.275" type="line"/>
			<point x="82.009" y="201.725" type="line"/>
			<point x="57.009" y="-8.275" type="line"/>
		</contour>
	</outline>
</glyph>
<glyph name="to22" format="2">
	<advance width="25"/>
	<outline>
		<contour>
			<point x="-211.221" y="22.582" type="line"/>
			<point x="-186.221" y="242.582" type="line"/>
			<point x="211.221" y="197.418" type="line"/>
			<point x="186.221" y="-22.582" type="line"/>
		</contour>
	</outline>
</glyph>
<glyph name="to23" format="2">
	<advance width="25"/>
	<outline>
		<contour>
			<point x="-213.317" y="21.828" type="line"/>
			<point x="-188.317" y="251.828" type="line"/>
			<point x="213.317" y="208.172" type="line"/>
			<point x="188.317" y="-21.828" type="line"/>
		</contour>
	</outline>
</glyph>
<glyph name="to24" format="2">
	<advance width="25"/>
	<outline>
		<contour>
			<point x="-82.123" y="7.252" type="line"/>
			<point x="-57.123" y="247.252" type="line"/>
			<point x="82.123" y="232.748" type="line"/>
			<point x="57.123" y="-7.252" type="line"/>
		</contour>
	</outline>
</glyph>
<glyph name="to26" format="2">
	<advance width="25"/>
	<outline>
		<contour>
			<point x="-62.27" y="4.786" type="line"/>
			<point x="-37.27" y="264.786" type="line"/>
			<point x="62.27" y="255.214" type="line"/>
			<point x="37.27" y="-4.786" type="line"/>
		</contour>
	</outline>
</glyph>
<glyph name="to27" format="2">
	<advance width="25"/>
	<outline>
		<contour>
			<point x="-213.64" y="18.624" type="line"/>
			<point x="-188.64" y="288.624" type="line"/>
			<point x="213.64" y="251.376" type="line"/>
			<point x="188.64" y="-18.624" type="line"/>
		</contour>
	</outline>
</glyph>
<glyph name="to28" format="2">
	<advance width="10"/>
	<outline>
		<contour>
			<point x="-205" y="7" type="line"/>
			<point x="-195" y="287" type="line"/>
			<point x="205" y="273" type="line"/>
			<point x="195" y="-7" type="line"/>
		</contour>
	</outline>
</glyph>
<glyph name="to29" format="2">
	<advance width="25"/>
	<outline>
		<contour>
			<point x="-211.761" y="17.178" type="line"/>
			<point x="-186.761" y="307.178" type="line"/>
			<point x="211.761" y="272.822" type="line"/>
			<point x="186.761" y="-17.178" type="line"/>
		</contour>
	</outline>
</glyph>
<glyph name="to3" format="2">
	<advance width="10"/>
	<outline>
		<contour>
			<point x="-195" y="63" type="line"/>
			<point x="-185" y="93" type="line"/>
			<point x="195" y="-33" type="line"/>
			<point x="185" y="-63" type="line"/>
		</contour>
	</outline>
</glyph>
<glyph name="to30" format="2">
	<advance width="25"/>
	<outline>
		<contour>
			<point x="-211.809" y="16.609" type="line"/>
			<point x="-186.809" y="316.609" type="line"/>
			<point x="211.809" y="283.391" type="line"/>
			<point x="186.809" y="-16.609" type="line"/>
		</contour>
	</outline>
</glyph>
<glyph name="to31" format="2">
	<advance width="25"/>
	<outline>
		<contour>
			<point x="-211.853" y="16.077" type="line"/>
			<point x="-186.853" y="326.077" type="line"/>
			<point x="211.853" y="293.923" type="line"/>
			<point x="186.853" y="-16.077" type="line"/>
		</contour>
	</outline>
</glyph>
<glyph name="to32" format="2">
	<advance width="25"/>
	<outline>
		<contour>
			<point x="-211.892" y="15.578" type="line"/>
			<point x="-186.892" y="335.578" type="line"/>
			<point x="211.892" y="304.422" type="line"/>
			<point x="186.892" y="-15.578" type="line"/>
		</contour>
	</outline>
</glyph>
<glyph name="to33" format="2">
	<advance width="25"/>
	<outline>
		<contour>
			<point x="-62.357" y="3.777" type="line"/>
			<point x="-37.357" y="333.777" type="line"/>
			<point x="62.357" y="326.223" type="line"/>
			<point x="37.357" y="-3.777" type="line"/>
		</contour>
	</outline>
</glyph>
<glyph name="to34" format="2">
	<advance width="25"/>
	<outline>
		<contour>
			<point x="-62.365" y="3.667" type="line"/>
			<point x="-37.365" y="343.667" type="line"/>
			<point x="62.365" y="336.333" type="line"/>
			<point x="37.365" y="-3.667" type="line"/>
		</contour>
	</outline>
</glyph>
<glyph name="to35" format="2">
	<advance width="25"/>
	<outline>
		<contour>
			<point x="-82.322" y="4.987" type="line"/>
			<point x="-57.322" y="354.987" type="line"/>
			<point x="82.322" y="345.013" type="line"/>
			<point x="57.322" y="-4.987" type="line"/>
		</contour>
	</outline>
</glyph>
<glyph name="to36" format="2">
	<advance width="10"/>
	<outline>
		<contour>
			<point x="-205" y="6" type="line"/>
			<point x="-195" y="366" type="line"/>
			<point x="205" y="354" type="line"/>
			<point x="195" y="-6" type="line"/>
		</contour>
	</outline>
</glyph>
<glyph name="to37" format="2">
	<advance width="25"/>
	<outline>
		<contour>
			<point x="-82.341" y="4.719" type="line"/>
			<point x="-57.341" y="374.719" type="line"/>
			<point x="82.341" y="365.281" type="line"/>
			<point x="57.341" y="-4.719" type="line"/>
		</contour>
	</outline>
</glyph>
<glyph name="to38" format="2">
	<advance width="25"/>
	<outline>
		<contour>
			<point x="-62.392" y="3.282" type="line"/>
			<point x="-37.392" y="383.282" type="line"/>
			<point x="62.392" y="376.718" type="line"/>
			<point x="37.392" y="-3.282" type="line"/>
		</contour>
	</outline>
</glyph>
<glyph name="to39" format="2">
	<advance width="25"/>
	<outline>
		<contour>
			<point x="-212.09" y="12.794" type="line"/>
			<point x="-187.09" y="402.794" type="line"/>
			<point x="212.09" y="377.206" type="line"/>
			<point x="187.09" y="-12.794" type="line"/>
		</contour>
	</outline>
</glyph>
<glyph name="to4" format="2">
	<advance width="25"/>
	<outline>
		<contour>
			<point x="-71.86" y="37.1" type="line"/>
			<point x="-46.86" y="77.1" type="line"/>
			<point x="71.86" y="2.9" type="line"/>
			<point x="46.86" y="-37.1" type="line"/>
		</contour>
	</outline>
</glyph>
<glyph name="to40" format="2">
	<advance width="25"/>
	<outline>
		<contour>
			<point x="-214.107" y="12.6" type="line"/>
			<point x="-189.107" y="412.6" type="line"/>
			<point x="214.107" y="387.4" type="line"/>
			<point x="189.107" y="-12.6" type="line"/>
		</contour>
	</outline>
</glyph>
<glyph name="to41" format="2">
	<advance width="25"/>
	<outline>
		<contour>
			<point x="-212.129" y="12.173" type="line"/>
			<point x="-187.129" y="422.173" type="line"/>
			<point x="212.129" y="397.827" type="line"/>
			<point x="187.129" y="-12.173" type="line"/>
		</contour>
	</outline>
</glyph>
<glyph name="to42" format="2">
	<advance width="25"/>
	<outline>
		<contour>
			<point x="-82.376" y="4.159" type="line"/>
			<point x="-57.376" y="424.159" type="line"/>
			<point x="82.376" y="415.841" type="line"/>
			<point x="57.376" y="-4.159" type="line"/>
		</contour>
	</outline>
</glyph>
<glyph name="to43" format="2">
	<advance width="25"/>
	<outline>
		<contour>
			<point x="-214.159" y="11.724" type="line"/>
			<point x="-189.159" y="441.724" type="line"/>
			<point x="214.159" y="418.276" type="line"/>
			<point x="189.159" y="-11.724" type="line"/>
		</contour>
	</outline>
</glyph>
<glyph name="to44" format="2">
	<advance width="25"/>
	<outline>
		<contour>
			<point x="-214.175" y="11.459" type="line"/>
			<point x="-189.175" y="451.459" type="line"/>
			<point x="214.175" y="428.541" type="line"/>
			<point x="189.175" y="-11.459" type="line"/>
		</contour>
	</outline>
</glyph>
<glyph name="to45" format="2">
	<advance width="25"/>
	<outline>
		<contour>
			<point x="-212.192" y="11.094" type="line"/>
			<point x="-187.192" y="461.094" type="line"/>
			<point x="212.192" y="438.906" type="line"/>
			<point x="187.192" y="-11.094" type="line"/>
		</contour>
	</outline>
</glyph>
<glyph name="to46" format="2">
	<advance width="25"/>
	<outline>
		<contour>
			<point x="-62.426" y="2.713" type="line"/>
			<point x="-37.426" y="462.713" type="line"/>
			<point x="62.426" y="457.287" type="line"/>
			<point x="37.426" y="-2.713" type="line"/>
		</contour>
	</outline>
</glyph>
<glyph name="to47" format="2">
	<advance width="25"/>
	<outline>
		<contour>
			<point x="-82.401" y="3.718" type="line"/>
			<point x="-57.401" y="473.718" type="line"/>
			<point x="82.401" y="466.282" type="line"/>
			<point x="57.401" y="-3.718" type="line"/>
		</contour>
	</outline>
</glyph>
<glyph name="to48" format="2">
	<advance width="25"/>
	<outline>
		<contour>
			<point x="-212.229" y="10.403" type="line"/>
			<point x="-187.229" y="490.403" type="line"/>
			<point x="212.229" y="469.597" type="line"/>
			<point x="187.229" y="-10.403" type="line"/>
		</contour>
	</outline>
</glyph>
<glyph name="to49" format="2">
	<advance width="25"/>
	<outline>
		<contour>
			<point x="-214.238" y="10.293" type="line"/>
			<point x="-189.238" y="500.293" type="line"/>
			<point x="214.238" y="479.707" type="line"/>
			<point x="189.238" y="-10.293" type="line"/>
		</contour>
	</outline>
</glyph>
<glyph name="to5" format="2">
	<advance width="10"/>
	<outline>
		<contour>
			<point x="-201" y="39" type="line"/>
			<point x="-191" y="89" type="line"/>
			<point x="201" y="11" type="line"/>
			<point x="191" y="-39" type="line"/>
		</contour>
	</outline>
</glyph>
<glyph name="to50" format="2">
	<advance width="25"/>
	<outline>
		<contour>
			<point x="-212.25" y="9.988" type="line"/>
			<point x="-187.25" y="509.988" type="line"/>
			<point x="212.25" y="490.012" type="line"/>
			<point x="187.25" y="-9.988" type="line"/>
		</contour>
	</outline>
</glyph>
<glyph name="to51" format="2">
	<advance width="25"/>
	<outline>
		<contour>
			<point x="-212.26" y="9.792" type="line"/>
			<point x="-187.26" y="519.792" type="line"/>
			<point x="212.26" y="500.208" type="line"/>
			<point x="187.26" y="-9.792" type="line"/>
		</contour>
	</outline>
</glyph>
<glyph name="to52" format="2">
	<advance width="25"/>
	<outline>
		<contour>
			<point x="-214.267" y="9.7" type="line"/>
			<point x="-189.267" y="529.7" type="line"/>
			<point x="214.267" y="510.3" type="line"/>
			<point x="189.267" y="-9.7" type="line"/>
		</contour>
	</outline>
</glyph>
<glyph name="to53" format="2">
	<advance width="25"/>
	<outline>
		<contour>
			<point x="-82.422" y="3.298" type="line"/>
			<point x="-57.422" y="533.298" type="line"/>
			<point x="82.422" y="526.702" type="line"/>
			<point x="57.422" y="-3.298" type="line"/>
		</contour>
	</outline>
</glyph>
<glyph name="to54" format="2">
	<advance width="25"/>
	<outline>
		<contour>
			<point x="-212.286" y="9.249" type="line"/>
			<point x="-187.286" y="549.249" type="line"/>
			<point x="212.286" y="530.751" type="line"/>
			<point x="187.286" y="-9.249" type="line"/>
		</contour>
	</outline>
</glyph>
<glyph name="to55" format="2">
	<advance width="25"/>
	<outline>
		<contour>
			<point x="-112.397" y="4.541" type="line"/>
			<point x="-87.397" y="554.541" type="line"/>
			<point x="112.397" y="545.459" type="line"/>
			<point x="87.397" y="-4.541" type="line"/>
		</contour>
	</outline>
</glyph>
<glyph name="to56" format="2">
	<advance width="25"/>
	<outline>
		<contour>
			<point x="-82.43" y="3.122" type="line"/>
			<point x="-57.43" y="563.122" type="line"/>
			<point x="82.43" y="556.878" type="line"/>
			<point x="57.43" y="-3.122" type="line"/>
		</contour>
	</outline>
</glyph>
<glyph name="to57" format="2">
	<advance width="10"/>
	<outline>
		<contour>
			<point x="-205" y="4" type="line"/>
			<point x="-195" y="574" type="line"/>
			<point x="205" y="566" type="line"/>
			<point x="195" y="-4" type="line"/>
		</contour>
	</outline>
</glyph>
<glyph name="to58" format="2">
	<advance width="25"/>
	<outline>
		<contour>
			<point x="-82.435" y="3.014" type="line"/>
			<point x="-57.435" y="583.014" type="line"/>
			<point x="82.435" y="576.986" type="line"/>
			<point x="57.435" y="-3.014" type="line"/>
		</contour>
	</outline>
</glyph>
<glyph name="to59" format="2">
	<advance width="25"/>
	<outline>
		<contour>
			<point x="-214.319" y="8.552" type="line"/>
			<point x="-189.319" y="598.552" type="line"/>
			<point x="214.319" y="581.448" type="line"/>
			<point x="189.319" y="-8.552" type="line"/>
		</contour>
	</outline>
</glyph>
<glyph name="to6" format="2">
	<advance width="25"/>
	<outline>
		<contour>
			<point x="-198.962" y="77.692" type="line"/>
			<point x="-173.962" y="137.692" type="line"/>
			<point x="198.962" y="-17.692" type="line"/>
			<point x="173.962" y="-77.692" type="line"/>
		</contour>
	</outline>
</glyph>
<glyph name="to60" format="2">
	<advance width="25"/>
	<outline>
		<contour>
			<point x="-212.327" y="8.326" type="line"/>
			<point x="-187.327" y="608.326" type="line"/>
			<point x="212.327" y="591.674" type="line"/>
			<point x="187.327" y="-8.326" type="line"/>
		</contour>
	</outline>
</glyph>
<glyph name="to61" format="2">
	<advance width="25"/>
	<outline>
		<contour>
			<point x="-214.331" y="8.272" type="line"/>
			<point x="-189.331" y="618.272" type="line"/>
			<point x="214.331" y="601.728" type="line"/>
			<point x="189.331" y="-8.272" type="line"/>
		</contour>
	</outline>
</glyph>
<glyph name="to62" format="2">
	<advance width="25"/>
	<outline>
		<contour>
			<point x="-82.443" y="2.82" type="line"/>
			<point x="-57.443" y="622.82" type="line"/>
			<point x="82.443" y="617.18" type="line"/>
			<point x="57.443" y="-2.82" type="line"/>
		</contour>
	</outline>
</glyph>
<glyph name="to63" format="2">
	<advance width="25"/>
	<outline>
		<contour>
			<point x="-82.445" y="2.776" type="line"/>
			<point x="-57.445" y="632.776" type="line"/>
			<point x="82.445" y="627.224" type="line"/>
			<point x="57.445" y="-2.776" type="line"/>
		</contour>
	</outline>
</glyph>
<glyph name="to64" format="2">
	<advance width="25"/>
	<outline>
		<contour>
			<point x="-214.346" y="7.885" type="line"/>
			<point x="-189.346" y="647.885" type="line"/>
			<point x="214.346" y="632.115" type="line"/>
			<point x="189.346" y="-7.885" type="line"/>
		</contour>
	</outline>
</glyph>
<glyph name="to65" format="2">
	<advance width="25"/>
	<outline>
		<contour>
			<point x="-212.352" y="7.687" type="line"/>
			<point x="-187.352" y="657.687" type="line"/>
			<point x="212.352" y="642.313" type="line"/>
			<point x="187.352" y="-7.687" type="line"/>
		</contour>
	</outline>
</glyph>
<glyph name="to66" format="2">
	<advance width="25"/>
	<outline>
		<contour>
			<point x="-214.355" y="7.646" type="line"/>
			<point x="-189.355" y="667.646" type="line"/>
			<point x="214.355" y="652.354" type="line"/>
			<point x="189.355" y="-7.646" type="line"/>
		</contour>
	</outline>
</glyph>
<glyph name="to67" format="2">
	<advance width="25"/>
	<outline>
		<contour>
			<point x="-212.361" y="7.457" type="line"/>
			<point x="-187.361" y="677.457" type="line"/>
			<point x="212.361" y="662.543" type="line"/>
			<point x="187.361" y="-7.457" type="line"/>
		</contour>
	</outline>
</glyph>
<glyph name="to68" format="2">
	<advance width="25"/>
	<outline>
		<contour>
			<point x="-82.453" y="2.572" type="line"/>
			<point x="-57.453" y="682.572" type="line"/>
			<point x="82.453" y="677.428" type="line"/>
			<point x="57.453" y="-2.572" type="line"/>
		</contour>
	</outline>
</glyph>
<glyph name="to69" format="2">
	<advance width="25"/>
	<outline>
		<contour>
			<point x="-214.368" y="7.314" type="line"/>
			<point x="-189.368" y="697.314" type="line"/>
			<point x="214.368" y="682.686" type="line"/>
			<point x="189.368" y="-7.314" type="line"/>
		</contour>
	</outline>
</glyph>
<glyph name="to7" format="2">
	<advance width="10"/>
	<outline>
		<contour>
			<point x="-203" y="28" type="line"/>
			<point x="-193" y="98" type="line"/>
			<point x="203" y="42" type="line"/>
			<point x="193" y="-28" type="line"/>
		</contour>
	</outline>
</glyph>
<glyph name="to70" format="2">
	<advance width="25"/>
	<outline>
		<contour>
			<point x="-212.373" y="7.138" type="line"/>
			<point x="-187.373" y="707.138" type="line"/>
			<point x="212.373" y="692.862" type="line"/>
			<point x="187.373" y="-7.138" type="line"/>
		</contour>
	</outline>
</glyph>
<glyph name="to71" format="2">
	<advance width="25"/>
	<outline>
		<contour>
			<point x="-214.375" y="7.108" type="line"/>
			<point x="-189.375" y="717.108" type="line"/>
			<point x="214.375" y="702.892" type="line"/>
			<point x="189.375" y="-7.108" type="line"/>
		</contour>
	</outline>
</glyph>
<glyph name="to73" format="2">
	<advance width="25"/>
	<outline>
		<contour>
			<point x="-212.383" y="6.845" type="line"/>
			<point x="-187.383" y="736.845" type="line"/>
			<point x="212.383" y="723.155" type="line"/>
			<point x="187.383" y="-6.845" type="line"/>
		</contour>
	</outline>
</glyph>
<glyph name="to74" format="2">
	<advance width="25"/>
	<outline>
		<contour>
			<point x="-82.46" y="2.364" type="line"/>
			<point x="-57.46" y="742.364" type="line"/>
			<point x="82.46" y="737.636" type="line"/>
			<point x="57.46" y="-2.364" type="line"/>
		</contour>
	</outline>
</glyph>
<glyph name="to75" format="2">
	<advance width="25"/>
	<outline>
		<contour>
			<point x="-62.472" y="1.666" type="line"/>
			<point x="-37.472" y="751.666" type="line"/>
			<point x="62.472" y="748.334" type="line"/>
			<point x="37.472" y="-1.666" type="line"/>
		</contour>
	</outline>
</glyph>
<glyph name="to76" format="2">
	<advance width="25"/>
	<outline>
		<contour>
			<point x="-62.473" y="1.644" type="line"/>
			<point x="-37.473" y="761.644" type="line"/>
			<point x="62.473" y="758.356" type="line"/>
			<point x="37.473" y="-1.644" type="line"/>
		</contour>
	</outline>
</glyph>
<glyph name="to77" format="2">
	<advance width="25"/>
	<outline>
		<contour>
			<point x="-212.395" y="6.49" type="line"/>
			<point x="-187.395" y="776.49" type="line"/>
			<point x="212.395" y="763.51" type="line"/>
			<point x="187.395" y="-6.49" type="line"/>
		</contour>
	</outline>
</glyph>
<glyph name="to78" format="2">
	<advance width="25"/>
	<outline>
		<contour>
			<point x="-62.474" y="1.602" type="line"/>
			<point x="-37.474" y="781.602" type="line"/>
			<point x="62.474" y="778.398" type="line"/>
			<point x="37.474" y="-1.602" type="line"/>
		</contour>
	</outline>
</glyph>
<glyph name="to79" format="2">
	<advance width="25"/>
	<outline>
		<contour>
			<point x="-214.399" y="6.389" type="line"/>
			<point x="-189.399" y="796.389" type="line"/>
			<point x="214.399" y="783.611" type="line"/>
			<point x="189.399" y="-6.389" type="line"/>
		</contour>
	</outline>
</glyph>
<glyph name="to8" format="2">
	<advance width="10"/>
	<outline>
		<contour>
			<point x="-203" y="25" type="line"/>
			<point x="-193" y="105" type="line"/>
			<point x="203" y="55" type="line"/>
			<point x="193" y="-25" type="line"/>
		</contour>
	</outline>
</glyph>
<glyph name="to80" format="2">
	<advance width="25"/>
	<outline>
		<contour>
			<point x="-82.466" y="2.186" type="line"/>
			<point x="-57.466" y="802.186" type="line"/>
			<point x="82.466" y="797.814" type="line"/>
			<point x="57.466" y="-2.186" type="line"/>
		</contour>
	</outline>
</glyph>
<glyph name="to81" format="2">
	<advance width="25"/>
	<outline>
		<contour>
			<point x="-62.476" y="1.542" type="line"/>
			<point x="-37.476" y="811.542" type="line"/>
			<point x="62.476" y="808.458" type="line"/>
			<point x="37.476" y="-1.542" type="line"/>
		</contour>
	</outline>
</glyph>
<glyph name="to82" format="2">
	<advance width="25"/>
	<outline>
		<contour>
			<point x="-214.406" y="6.156" type="line"/>
			<point x="-189.406" y="826.156" type="line"/>
			<point x="214.406" y="813.844" type="line"/>
			<point x="189.406" y="-6.156" type="line"/>
		</contour>
	</outline>
</glyph>
<glyph name="to83" format="2">
	<advance width="25"/>
	<outline>
		<contour>
			<point x="-62.477" y="1.505" type="line"/>
			<point x="-37.477" y="831.505" type="line"/>
			<point x="62.477" y="828.495" type="line"/>
			<point x="37.477" y="-1.505" type="line"/>
		</contour>
	</outline>
</glyph>
<glyph name="to84" format="2">
	<advance width="25"/>
	<outline>
		<contour>
			<point x="-112.456" y="2.975" type="line"/>
			<point x="-87.456" y="842.975" type="line"/>
			<point x="112.456" y="837.025" type="line"/>
			<point x="87.456" y="-2.975" type="line"/>
		</contour>
	</outline>
</glyph>
<glyph name="to85" format="2">
	<advance width="25"/>
	<outline>
		<contour>
			<point x="-214.413" y="5.939" type="line"/>
			<point x="-189.413" y="855.939" type="line"/>
			<point x="214.413" y="844.061" type="line"/>
			<point x="189.413" y="-5.939" type="line"/>
		</contour>
	</outline>
</glyph>
<glyph name="to86" format="2">
	<advance width="25"/>
	<outline>
		<contour>
			<point x="-214.415" y="5.87" type="line"/>
			<point x="-189.415" y="865.87" type="line"/>
			<point x="214.415" y="854.13" type="line"/>
			<point x="189.415" y="-5.87" type="line"/>
		</contour>
	</outline>
</glyph>
<glyph name="to87" format="2">
	<advance width="25"/>
	<outline>
		<contour>
			<point x="-82.471" y="2.011" type="line"/>
			<point x="-57.471" y="872.011" type="line"/>
			<point x="82.471" y="867.989" type="line"/>
			<point x="57.471" y="-2.011" type="line"/>
		</contour>
	</outline>
</glyph>
<glyph name="to88" format="2">
	<advance width="25"/>
	<outline>
		<contour>
			<point x="-62.48" y="1.42" type="line"/>
			<point x="-37.48" y="881.42" type="line"/>
			<point x="62.48" y="878.58" type="line"/>
			<point x="37.48" y="-1.42" type="line"/>
		</contour>
	</outline>
</glyph>
<glyph name="to89" format="2">
	<advance width="25"/>
	<outline>
		<contour>
			<point x="-212.421" y="5.616" type="line"/>
			<point x="-187.421" y="895.616" type="line"/>
			<point x="212.421" y="884.384" type="line"/>
			<point x="187.421" y="-5.616" type="line"/>
		</contour>
	</outline>
</glyph>
<glyph name="to9" format="2">
	<advance width="25"/>
	<outline>
		<contour>
			<point x="-60.676" y="13.382" type="line"/>
			<point x="-35.676" y="103.382" type="line"/>
			<point x="60.676" y="76.618" type="line"/>
			<point x="35.676" y="-13.382" type="line"/>
		</contour>
	</outline>
</glyph>
<glyph name="to90" format="2">
	<advance width="25"/>
	<outline>
		<contour>
			<point x="-62.481" y="1.388" type="line"/>
			<point x="-37.481" y="901.388" type="line"/>
			<point x="62.481" y="898.612" type="line"/>
			<point x="37.481" y="-1.388" type="line"/>
		</contour>
	</outline>
</glyph>
<glyph name="to91" format="2">
	<advance width="10"/>
	<outline>
		<contour>
			<point x="-205" y="2" type="line"/>
			<point x="-195" y="912" type="line"/>
			<point x="205" y="908" type="line"/>
			<point x="195" y="-2" type="line"/>
		</contour>
	</outline>
</glyph>
<glyph name="to92" format="2">
	<advance width="25"/>
	<outline>
		<contour>
			<point x="-62.482" y="1.358" type="line"/>
			<point x="-37.482" y="921.358" type="line"/>
			<point x="62.482" y="918.642" type="line"/>
			<point x="37.482" y="-1.358" type="line"/>
		</contour>
	</outline>
</glyph>
<glyph name="to93" format="2">
	<advance width="10"/>
	<outline>
		<contour>
			<point x="-205" y="2" type="line"/>
			<point x="-195" y="932" type="line"/>
			<point x="205" y="928" type="line"/>
			<point x="195" y="-2" type="line"/>
		</contour>
	</outline>
</glyph>
<glyph name="to94" format="2">
	<advance width="25"/>
	<outline>
		<contour>
			<point x="-214.429" y="5.37" type="line"/>
			<point x="-189.429" y="945.37" type="line"/>
			<point x="214.429" y="934.63" type="line"/>
			<point x="189.429" y="-5.37" type="line"/>
		</contour>
	</outline>
</glyph>
<glyph name="to95" format="2">
	<advance width="25"/>
	<outline>
		<contour>
			<point x="-214.43" y="5.314" type="line"/>
			<point x="-189.43" y="955.314" type="line"/>
			<point x="214.43" y="944.686" type="line"/>
			<point x="189.43" y="-5.314" type="line"/>
		</contour>
	</outline>
</glyph>
<glyph name="to96" format="2">
	<advance width="25"/>
	<outline>
		<contour>
			<point x="-212.432" y="5.207" type="line"/>
			<point x="-187.432" y="965.207" type="line"/>
			<point x="212.432" y="954.793" type="line"/>
			<point x="187.432" y="-5.207" type="line"/>
		</contour>
	</outline>
</glyph>
<glyph name="to97" format="2">
	<advance width="25"/>
	<outline>
		<contour>
			<point x="-62.483" y="1.288" type="line"/>
			<point x="-37.483" y="971.288" type="line"/>
			<point x="62.483" y="968.712" type="line"/>
			<point x="37.483" y="-1.288" type="line"/>
		</contour>
	</outline>
</glyph>
<glyph name="to98" format="2">
	<advance width="25"/>
	<outline>
		<contour>
			<point x="-62.484" y="1.275" type="line"/>
			<point x="-37.484" y="981.275" type="line"/>
			<point x="62.484" y="978.725" type="line"/>
			<point x="37.484" y="-1.275" type="line"/>
		</contour>
	</outline>
</glyph>
<glyph name="to99" format="2">
	<advance width="25"/>
	<outline>
		<contour>
			<point x="-212.436" y="5.049" type="line"/>
			<point x="-187.436" y="995.049" type="line"/>
			<point x="212.436" y="984.951" type="line"/>
			<point x="187.436" y="-5.049" type="line"/>
		</contour>
	</outline>
</glyph>
